<svg width="363" height="67" viewBox="0 0 363 67" fill="none" xmlns="http://www.w3.org/2000/svg">
<mask id="path-1-outside-1_163_105" maskUnits="userSpaceOnUse" x="8" y="5" width="348" height="56" fill="black">
<rect fill="white" x="8" y="5" width="348" height="56"/>
<path d="M34.86 56.52C29.74 56.52 25.48 55.68 22.08 54C18.68 52.28 16.14 49.88 14.46 46.8C12.82 43.72 12 40.12 12 36C12 31.44 12.94 27.46 14.82 24.06C16.7 20.62 19.4 17.96 22.92 16.08C26.48 14.2 30.76 13.26 35.76 13.26C40.44 13.26 44.02 14.2 46.5 16.08C49.02 17.92 50.28 20.46 50.28 23.7C50.28 26.06 49.62 27.94 48.3 29.34C47.02 30.7 45.14 31.38 42.66 31.38C41.3 31.38 40.12 31.2 39.12 30.84C38.12 30.48 37.12 30.14 36.12 29.82C35.12 29.46 33.96 29.28 32.64 29.28C31.52 29.28 30.46 29.46 29.46 29.82C28.5 30.14 27.72 30.72 27.12 31.56C26.56 32.36 26.28 33.48 26.28 34.92C26.28 36.8 26.84 38.14 27.96 38.94C29.12 39.74 30.64 40.14 32.52 40.14C33.48 40.14 34.56 40.08 35.76 39.96C36.96 39.8 38.14 39.66 39.3 39.54C40.5 39.42 41.52 39.36 42.36 39.36C44.48 39.36 46.16 39.96 47.4 41.16C48.68 42.32 49.32 44.08 49.32 46.44C49.32 49.52 48.14 51.98 45.78 53.82C43.46 55.62 39.82 56.52 34.86 56.52Z"/>
<path d="M78.6122 55.5C76.9722 55.5 75.7122 55.14 74.8322 54.42C73.9522 53.66 73.3522 52.7 73.0322 51.54C72.7522 50.34 72.6122 49.08 72.6122 47.76L72.9122 47.52C72.3122 49.24 71.3922 50.72 70.1522 51.96C68.9522 53.2 67.5722 54.16 66.0122 54.84C64.4922 55.48 62.9522 55.8 61.3922 55.8C59.0322 55.8 57.0522 55.3 55.4522 54.3C53.8522 53.26 52.5522 51.62 51.5522 49.38C50.7122 47.5 50.0322 44.98 49.5122 41.82C49.0322 38.66 48.7922 35.38 48.7922 31.98C48.7922 30.42 48.8522 29 48.9722 27.72C49.1322 26.4 49.3522 25.3 49.6322 24.42C50.1122 22.9 50.9122 21.78 52.0322 21.06C53.1922 20.34 54.5722 19.98 56.1722 19.98C58.0522 19.98 59.5322 20.6 60.6122 21.84C61.7322 23.04 62.3922 24.72 62.5922 26.88C62.7122 28.08 62.8122 29.46 62.8922 31.02C62.9722 32.54 63.0522 34.04 63.1322 35.52C63.2122 37 63.2922 38.28 63.3722 39.36C63.5322 40.84 63.8922 41.94 64.4522 42.66C65.0122 43.34 65.7922 43.68 66.7922 43.68C67.9522 43.68 68.8322 43.12 69.4322 42C70.0722 40.84 70.3922 39.26 70.3922 37.26C70.3922 36.18 70.3322 34.96 70.2122 33.6C70.1322 32.24 70.0522 30.92 69.9722 29.64C69.8922 28.32 69.8522 27.24 69.8522 26.4C69.8522 23.68 70.3722 21.74 71.4122 20.58C72.4922 19.42 73.9922 18.84 75.9122 18.84C77.4722 18.84 78.8122 19.18 79.9322 19.86C81.0522 20.5 81.8722 21.44 82.3922 22.68C82.9522 23.84 83.4322 25.42 83.8322 27.42C84.2322 29.42 84.5522 31.68 84.7922 34.2C85.0322 36.68 85.1522 39.32 85.1522 42.12C85.1522 46.6 84.6722 49.96 83.7122 52.2C82.7522 54.4 81.0522 55.5 78.6122 55.5Z"/>
<path d="M94.8412 19.74H94.2412C94.0413 17.98 94.1012 16.32 94.4212 14.76C94.7412 13.16 95.4212 11.88 96.4613 10.92C97.5013 9.92 99.0013 9.42 100.961 9.42C102.961 9.42 104.421 9.88 105.341 10.8C106.261 11.72 106.721 13 106.721 14.64C106.721 16.72 106.241 18.5 105.281 19.98L104.801 19.86C106.201 19.1 107.741 18.72 109.421 18.72C111.501 18.72 113.161 19.22 114.401 20.22C115.681 21.18 116.321 22.84 116.321 25.2C116.321 27.4 115.601 29.08 114.161 30.24C112.721 31.36 110.921 31.92 108.761 31.92C108.001 31.92 107.181 31.88 106.301 31.8C105.461 31.68 104.641 31.5 103.841 31.26L104.141 30.6C104.661 31.8 105.161 33.16 105.641 34.68C106.121 36.16 106.541 37.72 106.901 39.36C107.301 40.96 107.601 42.54 107.801 44.1C108.041 45.62 108.161 46.98 108.161 48.18C108.161 50.74 107.521 52.76 106.241 54.24C105.001 55.72 103.081 56.46 100.481 56.46C98.8813 56.46 97.5413 56.18 96.4613 55.62C95.3812 55.06 94.5212 54.28 93.8812 53.28C93.2412 52.28 92.7812 51.1 92.5013 49.74C92.2213 48.34 92.0813 46.84 92.0813 45.24C92.0813 43.88 92.1813 42.36 92.3812 40.68C92.6212 38.96 92.9613 37.18 93.4013 35.34C93.8413 33.5 94.3613 31.74 94.9613 30.06L95.5612 31.56C94.2812 32.6 92.6612 33.12 90.7012 33.12C88.5013 33.12 86.7812 32.58 85.5413 31.5C84.3013 30.38 83.6813 28.68 83.6813 26.4C83.6813 24.04 84.3412 22.22 85.6612 20.94C87.0212 19.66 88.8413 19.02 91.1213 19.02C91.8413 19.02 92.5212 19.1 93.1612 19.26C93.8012 19.38 94.3612 19.54 94.8412 19.74Z"/>
<path d="M122.604 9.84C125.084 9.84 126.844 10.42 127.884 11.58C128.964 12.74 129.504 14.08 129.504 15.6C129.504 17.44 128.844 18.88 127.524 19.92C126.204 20.92 124.364 21.42 122.004 21.42C119.684 21.42 117.944 20.86 116.784 19.74C115.664 18.62 115.104 17.3 115.104 15.78C115.104 13.82 115.784 12.34 117.144 11.34C118.544 10.34 120.364 9.84 122.604 9.84ZM123.264 23.22C125.224 23.22 126.744 24.42 127.824 26.82C128.944 29.22 129.504 33.04 129.504 38.28C129.504 44.72 128.804 49.36 127.404 52.2C126.044 55.04 123.964 56.46 121.164 56.46C118.964 56.46 117.344 55.42 116.304 53.34C115.304 51.22 114.804 47.54 114.804 42.3C114.804 35.86 115.584 31.08 117.144 27.96C118.704 24.8 120.744 23.22 123.264 23.22Z"/>
<path d="M148.653 56.34C143.733 56.34 139.813 55.68 136.893 54.36C133.973 53.04 131.853 51.14 130.533 48.66C129.253 46.18 128.613 43.22 128.613 39.78C128.613 35.42 129.513 31.72 131.313 28.68C133.153 25.6 135.653 23.24 138.813 21.6C142.013 19.96 145.633 19.14 149.673 19.14C154.473 19.14 157.993 20.1 160.233 22.02C162.473 23.9 163.593 26.38 163.593 29.46C163.593 31.9 162.913 34.02 161.553 35.82C160.233 37.62 158.373 39 155.973 39.96C153.613 40.92 150.873 41.4 147.753 41.4C146.313 41.4 144.913 41.3 143.553 41.1C142.193 40.9 140.973 40.64 139.893 40.32L141.333 36.96C141.213 37.92 141.153 38.88 141.153 39.84C141.153 41.56 141.773 42.78 143.013 43.5C144.293 44.22 146.053 44.58 148.293 44.58C150.453 44.58 152.293 44.36 153.813 43.92C155.333 43.44 156.673 42.98 157.833 42.54C158.993 42.06 160.093 41.82 161.133 41.82C161.853 41.82 162.593 42 163.353 42.36C164.113 42.72 164.753 43.28 165.273 44.04C165.793 44.8 166.053 45.82 166.053 47.1C166.053 48.86 165.393 50.44 164.073 51.84C162.753 53.24 160.793 54.34 158.193 55.14C155.633 55.94 152.453 56.34 148.653 56.34ZM145.173 35.4C147.093 35.4 148.753 34.94 150.153 34.02C151.553 33.06 152.253 31.9 152.253 30.54C152.253 29.66 151.933 28.94 151.293 28.38C150.653 27.82 149.773 27.54 148.653 27.54C147.413 27.54 146.233 27.78 145.113 28.26C144.033 28.74 143.153 29.36 142.473 30.12C141.793 30.88 141.453 31.72 141.453 32.64C141.453 33.52 141.773 34.2 142.413 34.68C143.093 35.16 144.013 35.4 145.173 35.4Z"/>
<path d="M178.387 56.16C175.187 56.16 172.607 55.7 170.647 54.78C168.727 53.86 167.327 52.36 166.447 50.28C165.887 48.92 165.467 47.3 165.187 45.42C164.947 43.5 164.827 41.28 164.827 38.76C164.827 35 164.987 31.76 165.307 29.04C165.627 26.32 166.087 24 166.687 22.08C167.287 20.16 168.027 18.54 168.907 17.22C170.067 15.46 171.927 14.08 174.487 13.08C177.047 12.04 180.667 11.52 185.347 11.52C188.987 11.52 191.907 11.94 194.107 12.78C196.347 13.58 197.967 14.68 198.967 16.08C199.967 17.48 200.467 19.08 200.467 20.88C200.467 23.52 199.627 25.68 197.947 27.36C196.267 29 194.067 30.3 191.347 31.26V31.5C194.307 31.78 196.607 32.72 198.247 34.32C199.927 35.88 200.767 38.16 200.767 41.16C200.767 43.36 200.127 45.38 198.847 47.22C197.567 49.02 195.847 50.6 193.687 51.96C191.567 53.28 189.167 54.32 186.487 55.08C183.847 55.8 181.147 56.16 178.387 56.16ZM182.407 45.48C183.607 45.48 184.667 45.3 185.587 44.94C186.507 44.58 187.227 44.08 187.747 43.44C188.307 42.8 188.587 42.06 188.587 41.22C188.587 40.18 188.127 39.32 187.207 38.64C186.327 37.92 184.947 37.56 183.067 37.56C181.587 37.56 180.327 37.94 179.287 38.7C178.287 39.42 177.787 40.48 177.787 41.88C177.787 43.12 178.167 44.04 178.927 44.64C179.687 45.2 180.847 45.48 182.407 45.48ZM182.407 28.38C184.167 28.38 185.607 28.02 186.727 27.3C187.847 26.58 188.407 25.6 188.407 24.36C188.407 23.44 187.947 22.7 187.027 22.14C186.147 21.54 184.887 21.24 183.247 21.24C181.767 21.24 180.547 21.56 179.587 22.2C178.667 22.84 178.207 23.78 178.207 25.02C178.207 26.14 178.587 26.98 179.347 27.54C180.107 28.1 181.127 28.38 182.407 28.38Z"/>
<path d="M229.901 55.5C228.261 55.5 227.001 55.14 226.121 54.42C225.241 53.66 224.641 52.7 224.321 51.54C224.041 50.34 223.901 49.08 223.901 47.76L224.201 47.52C223.601 49.24 222.681 50.72 221.441 51.96C220.241 53.2 218.861 54.16 217.301 54.84C215.781 55.48 214.241 55.8 212.681 55.8C210.321 55.8 208.341 55.3 206.741 54.3C205.141 53.26 203.841 51.62 202.841 49.38C202.001 47.5 201.321 44.98 200.801 41.82C200.321 38.66 200.081 35.38 200.081 31.98C200.081 30.42 200.141 29 200.261 27.72C200.421 26.4 200.641 25.3 200.921 24.42C201.401 22.9 202.201 21.78 203.321 21.06C204.481 20.34 205.861 19.98 207.461 19.98C209.341 19.98 210.821 20.6 211.901 21.84C213.021 23.04 213.681 24.72 213.881 26.88C214.001 28.08 214.101 29.46 214.181 31.02C214.261 32.54 214.341 34.04 214.421 35.52C214.501 37 214.581 38.28 214.661 39.36C214.821 40.84 215.181 41.94 215.741 42.66C216.301 43.34 217.081 43.68 218.081 43.68C219.241 43.68 220.121 43.12 220.721 42C221.361 40.84 221.681 39.26 221.681 37.26C221.681 36.18 221.621 34.96 221.501 33.6C221.421 32.24 221.341 30.92 221.261 29.64C221.181 28.32 221.141 27.24 221.141 26.4C221.141 23.68 221.661 21.74 222.701 20.58C223.781 19.42 225.281 18.84 227.201 18.84C228.761 18.84 230.101 19.18 231.221 19.86C232.341 20.5 233.161 21.44 233.681 22.68C234.241 23.84 234.721 25.42 235.121 27.42C235.521 29.42 235.841 31.68 236.081 34.2C236.321 36.68 236.441 39.32 236.441 42.12C236.441 46.6 235.961 49.96 235.001 52.2C234.041 54.4 232.341 55.5 229.901 55.5Z"/>
<path d="M242.41 56.46C241.05 56.46 239.89 56.1 238.93 55.38C238.01 54.66 237.37 53.56 237.01 52.08C236.69 50.52 236.41 48.5 236.17 46.02C235.97 43.5 235.87 40.82 235.87 37.98C235.87 36.42 235.89 34.64 235.93 32.64C236.01 30.64 236.11 28.62 236.23 26.58C236.39 24.54 236.55 22.64 236.71 20.88C236.87 19.08 237.03 17.62 237.19 16.5C237.59 14.18 238.33 12.36 239.41 11.04C240.53 9.68 242.13 9 244.21 9C246.45 9 248.09 9.72 249.13 11.16C250.17 12.56 250.69 14.28 250.69 16.32C250.69 18.08 250.55 20.16 250.27 22.56C250.03 24.96 249.65 27.4 249.13 29.88L248.41 29.52C248.85 27.8 249.53 26.26 250.45 24.9C251.37 23.5 252.55 22.4 253.99 21.6C255.43 20.76 257.15 20.34 259.15 20.34C262.95 20.34 265.95 21.74 268.15 24.54C270.39 27.3 271.51 31.62 271.51 37.5C271.51 41.62 270.89 45.06 269.65 47.82C268.41 50.58 266.71 52.66 264.55 54.06C262.39 55.42 259.93 56.1 257.17 56.1C254.61 56.1 252.47 55.36 250.75 53.88C249.03 52.4 247.91 50.26 247.39 47.46L248.65 48.12C248.17 51 247.41 53.12 246.37 54.48C245.37 55.8 244.05 56.46 242.41 56.46ZM253.69 46.02C254.97 46.02 256.07 45.38 256.99 44.1C257.95 42.82 258.43 40.82 258.43 38.1C258.43 35.94 258.05 34.18 257.29 32.82C256.57 31.46 255.33 30.78 253.57 30.78C252.13 30.78 250.97 31.38 250.09 32.58C249.21 33.78 248.77 35.6 248.77 38.04C248.77 40.36 249.21 42.28 250.09 43.8C251.01 45.28 252.21 46.02 253.69 46.02Z"/>
<path d="M288.485 18.3C292.805 18.3 295.905 19.06 297.785 20.58C299.705 22.06 300.665 23.98 300.665 26.34C300.665 27.82 300.165 29.04 299.165 30C298.205 30.96 296.845 31.44 295.085 31.44C293.805 31.44 292.425 31.24 290.945 30.84C289.505 30.4 287.845 30.18 285.965 30.18C285.085 30.18 284.405 30.34 283.925 30.66C283.485 30.98 283.265 31.4 283.265 31.92C283.265 32.44 283.505 32.88 283.985 33.24C284.505 33.56 285.625 33.82 287.345 34.02C290.385 34.26 292.945 34.74 295.025 35.46C297.145 36.18 298.745 37.3 299.825 38.82C300.905 40.3 301.445 42.36 301.445 45C301.445 48.88 299.985 51.7 297.065 53.46C294.185 55.22 290.165 56.1 285.005 56.1C281.445 56.1 278.585 55.76 276.425 55.08C274.265 54.36 272.705 53.38 271.745 52.14C270.785 50.86 270.305 49.4 270.305 47.76C270.305 46.16 270.825 44.92 271.865 44.04C272.945 43.12 274.205 42.66 275.645 42.66C276.565 42.66 277.545 42.8 278.585 43.08C279.625 43.32 280.725 43.58 281.885 43.86C283.045 44.14 284.225 44.28 285.425 44.28C287.025 44.28 287.825 43.82 287.825 42.9C287.825 42.58 287.725 42.3 287.525 42.06C287.365 41.78 286.985 41.54 286.385 41.34C285.825 41.1 284.945 40.92 283.745 40.8C281.065 40.48 278.745 40 276.785 39.36C274.825 38.72 273.305 37.74 272.225 36.42C271.145 35.06 270.605 33.22 270.605 30.9C270.605 27.14 272.165 24.1 275.285 21.78C278.405 19.46 282.805 18.3 288.485 18.3Z"/>
<path d="M308.334 9.84C310.814 9.84 312.574 10.42 313.614 11.58C314.694 12.74 315.234 14.08 315.234 15.6C315.234 17.44 314.574 18.88 313.254 19.92C311.934 20.92 310.094 21.42 307.734 21.42C305.414 21.42 303.674 20.86 302.514 19.74C301.394 18.62 300.834 17.3 300.834 15.78C300.834 13.82 301.514 12.34 302.874 11.34C304.274 10.34 306.094 9.84 308.334 9.84ZM308.994 23.22C310.954 23.22 312.474 24.42 313.554 26.82C314.674 29.22 315.234 33.04 315.234 38.28C315.234 44.72 314.534 49.36 313.134 52.2C311.774 55.04 309.694 56.46 306.894 56.46C304.694 56.46 303.074 55.42 302.034 53.34C301.034 51.22 300.534 47.54 300.534 42.3C300.534 35.86 301.314 31.08 302.874 27.96C304.434 24.8 306.474 23.22 308.994 23.22Z"/>
<path d="M334.384 56.34C329.464 56.34 325.544 55.68 322.624 54.36C319.704 53.04 317.584 51.14 316.264 48.66C314.984 46.18 314.344 43.22 314.344 39.78C314.344 35.42 315.244 31.72 317.044 28.68C318.884 25.6 321.384 23.24 324.544 21.6C327.744 19.96 331.364 19.14 335.404 19.14C340.204 19.14 343.724 20.1 345.964 22.02C348.204 23.9 349.324 26.38 349.324 29.46C349.324 31.9 348.644 34.02 347.284 35.82C345.964 37.62 344.104 39 341.704 39.96C339.344 40.92 336.604 41.4 333.484 41.4C332.044 41.4 330.644 41.3 329.284 41.1C327.924 40.9 326.704 40.64 325.624 40.32L327.064 36.96C326.944 37.92 326.884 38.88 326.884 39.84C326.884 41.56 327.504 42.78 328.744 43.5C330.024 44.22 331.784 44.58 334.024 44.58C336.184 44.58 338.024 44.36 339.544 43.92C341.064 43.44 342.404 42.98 343.564 42.54C344.724 42.06 345.824 41.82 346.864 41.82C347.584 41.82 348.324 42 349.084 42.36C349.844 42.72 350.484 43.28 351.004 44.04C351.524 44.8 351.784 45.82 351.784 47.1C351.784 48.86 351.124 50.44 349.804 51.84C348.484 53.24 346.524 54.34 343.924 55.14C341.364 55.94 338.184 56.34 334.384 56.34ZM330.904 35.4C332.824 35.4 334.484 34.94 335.884 34.02C337.284 33.06 337.984 31.9 337.984 30.54C337.984 29.66 337.664 28.94 337.024 28.38C336.384 27.82 335.504 27.54 334.384 27.54C333.144 27.54 331.964 27.78 330.844 28.26C329.764 28.74 328.884 29.36 328.204 30.12C327.524 30.88 327.184 31.72 327.184 32.64C327.184 33.52 327.504 34.2 328.144 34.68C328.824 35.16 329.744 35.4 330.904 35.4Z"/>
</mask>
<path d="M34.86 56.52C29.74 56.52 25.48 55.68 22.08 54C18.68 52.28 16.14 49.88 14.46 46.8C12.82 43.72 12 40.12 12 36C12 31.44 12.94 27.46 14.82 24.06C16.7 20.62 19.4 17.96 22.92 16.08C26.48 14.2 30.76 13.26 35.76 13.26C40.44 13.26 44.02 14.2 46.5 16.08C49.02 17.92 50.28 20.46 50.28 23.7C50.28 26.06 49.62 27.94 48.3 29.34C47.02 30.7 45.14 31.38 42.66 31.38C41.3 31.38 40.12 31.2 39.12 30.84C38.12 30.48 37.12 30.14 36.12 29.82C35.12 29.46 33.96 29.28 32.64 29.28C31.52 29.28 30.46 29.46 29.46 29.82C28.5 30.14 27.72 30.72 27.12 31.56C26.56 32.36 26.28 33.48 26.28 34.92C26.28 36.8 26.84 38.14 27.96 38.94C29.12 39.74 30.64 40.14 32.52 40.14C33.48 40.14 34.56 40.08 35.76 39.96C36.96 39.8 38.14 39.66 39.3 39.54C40.5 39.42 41.52 39.36 42.36 39.36C44.48 39.36 46.16 39.96 47.4 41.16C48.68 42.32 49.32 44.08 49.32 46.44C49.32 49.52 48.14 51.98 45.78 53.82C43.46 55.62 39.82 56.52 34.86 56.52Z" fill="#0042C2"/>
<path d="M78.6122 55.5C76.9722 55.5 75.7122 55.14 74.8322 54.42C73.9522 53.66 73.3522 52.7 73.0322 51.54C72.7522 50.34 72.6122 49.08 72.6122 47.76L72.9122 47.52C72.3122 49.24 71.3922 50.72 70.1522 51.96C68.9522 53.2 67.5722 54.16 66.0122 54.84C64.4922 55.48 62.9522 55.8 61.3922 55.8C59.0322 55.8 57.0522 55.3 55.4522 54.3C53.8522 53.26 52.5522 51.62 51.5522 49.38C50.7122 47.5 50.0322 44.98 49.5122 41.82C49.0322 38.66 48.7922 35.38 48.7922 31.98C48.7922 30.42 48.8522 29 48.9722 27.72C49.1322 26.4 49.3522 25.3 49.6322 24.42C50.1122 22.9 50.9122 21.78 52.0322 21.06C53.1922 20.34 54.5722 19.98 56.1722 19.98C58.0522 19.98 59.5322 20.6 60.6122 21.84C61.7322 23.04 62.3922 24.72 62.5922 26.88C62.7122 28.08 62.8122 29.46 62.8922 31.02C62.9722 32.54 63.0522 34.04 63.1322 35.52C63.2122 37 63.2922 38.28 63.3722 39.36C63.5322 40.84 63.8922 41.94 64.4522 42.66C65.0122 43.34 65.7922 43.68 66.7922 43.68C67.9522 43.68 68.8322 43.12 69.4322 42C70.0722 40.84 70.3922 39.26 70.3922 37.26C70.3922 36.18 70.3322 34.96 70.2122 33.6C70.1322 32.24 70.0522 30.92 69.9722 29.64C69.8922 28.32 69.8522 27.24 69.8522 26.4C69.8522 23.68 70.3722 21.74 71.4122 20.58C72.4922 19.42 73.9922 18.84 75.9122 18.84C77.4722 18.84 78.8122 19.18 79.9322 19.86C81.0522 20.5 81.8722 21.44 82.3922 22.68C82.9522 23.84 83.4322 25.42 83.8322 27.42C84.2322 29.42 84.5522 31.68 84.7922 34.2C85.0322 36.68 85.1522 39.32 85.1522 42.12C85.1522 46.6 84.6722 49.96 83.7122 52.2C82.7522 54.4 81.0522 55.5 78.6122 55.5Z" fill="#0042C2"/>
<path d="M94.8412 19.74H94.2412C94.0413 17.98 94.1012 16.32 94.4212 14.76C94.7412 13.16 95.4212 11.88 96.4613 10.92C97.5013 9.92 99.0013 9.42 100.961 9.42C102.961 9.42 104.421 9.88 105.341 10.8C106.261 11.72 106.721 13 106.721 14.64C106.721 16.72 106.241 18.5 105.281 19.98L104.801 19.86C106.201 19.1 107.741 18.72 109.421 18.72C111.501 18.72 113.161 19.22 114.401 20.22C115.681 21.18 116.321 22.84 116.321 25.2C116.321 27.4 115.601 29.08 114.161 30.24C112.721 31.36 110.921 31.92 108.761 31.92C108.001 31.92 107.181 31.88 106.301 31.8C105.461 31.68 104.641 31.5 103.841 31.26L104.141 30.6C104.661 31.8 105.161 33.16 105.641 34.68C106.121 36.16 106.541 37.72 106.901 39.36C107.301 40.96 107.601 42.54 107.801 44.1C108.041 45.62 108.161 46.98 108.161 48.18C108.161 50.74 107.521 52.76 106.241 54.24C105.001 55.72 103.081 56.46 100.481 56.46C98.8813 56.46 97.5413 56.18 96.4613 55.62C95.3812 55.06 94.5212 54.28 93.8812 53.28C93.2412 52.28 92.7812 51.1 92.5013 49.74C92.2213 48.34 92.0813 46.84 92.0813 45.24C92.0813 43.88 92.1813 42.36 92.3812 40.68C92.6212 38.96 92.9613 37.18 93.4013 35.34C93.8413 33.5 94.3613 31.74 94.9613 30.06L95.5612 31.56C94.2812 32.6 92.6612 33.12 90.7012 33.12C88.5013 33.12 86.7812 32.58 85.5413 31.5C84.3013 30.38 83.6813 28.68 83.6813 26.4C83.6813 24.04 84.3412 22.22 85.6612 20.94C87.0212 19.66 88.8413 19.02 91.1213 19.02C91.8413 19.02 92.5212 19.1 93.1612 19.26C93.8012 19.38 94.3612 19.54 94.8412 19.74Z" fill="#0042C2"/>
<path d="M122.604 9.84C125.084 9.84 126.844 10.42 127.884 11.58C128.964 12.74 129.504 14.08 129.504 15.6C129.504 17.44 128.844 18.88 127.524 19.92C126.204 20.92 124.364 21.42 122.004 21.42C119.684 21.42 117.944 20.86 116.784 19.74C115.664 18.62 115.104 17.3 115.104 15.78C115.104 13.82 115.784 12.34 117.144 11.34C118.544 10.34 120.364 9.84 122.604 9.84ZM123.264 23.22C125.224 23.22 126.744 24.42 127.824 26.82C128.944 29.22 129.504 33.04 129.504 38.28C129.504 44.72 128.804 49.36 127.404 52.2C126.044 55.04 123.964 56.46 121.164 56.46C118.964 56.46 117.344 55.42 116.304 53.34C115.304 51.22 114.804 47.54 114.804 42.3C114.804 35.86 115.584 31.08 117.144 27.96C118.704 24.8 120.744 23.22 123.264 23.22Z" fill="#0042C2"/>
<path d="M148.653 56.34C143.733 56.34 139.813 55.68 136.893 54.36C133.973 53.04 131.853 51.14 130.533 48.66C129.253 46.18 128.613 43.22 128.613 39.78C128.613 35.42 129.513 31.72 131.313 28.68C133.153 25.6 135.653 23.24 138.813 21.6C142.013 19.96 145.633 19.14 149.673 19.14C154.473 19.14 157.993 20.1 160.233 22.02C162.473 23.9 163.593 26.38 163.593 29.46C163.593 31.9 162.913 34.02 161.553 35.82C160.233 37.62 158.373 39 155.973 39.96C153.613 40.92 150.873 41.4 147.753 41.4C146.313 41.4 144.913 41.3 143.553 41.1C142.193 40.9 140.973 40.64 139.893 40.32L141.333 36.96C141.213 37.92 141.153 38.88 141.153 39.84C141.153 41.56 141.773 42.78 143.013 43.5C144.293 44.22 146.053 44.58 148.293 44.58C150.453 44.58 152.293 44.36 153.813 43.92C155.333 43.44 156.673 42.98 157.833 42.54C158.993 42.06 160.093 41.82 161.133 41.82C161.853 41.82 162.593 42 163.353 42.36C164.113 42.72 164.753 43.28 165.273 44.04C165.793 44.8 166.053 45.82 166.053 47.1C166.053 48.86 165.393 50.44 164.073 51.84C162.753 53.24 160.793 54.34 158.193 55.14C155.633 55.94 152.453 56.34 148.653 56.34ZM145.173 35.4C147.093 35.4 148.753 34.94 150.153 34.02C151.553 33.06 152.253 31.9 152.253 30.54C152.253 29.66 151.933 28.94 151.293 28.38C150.653 27.82 149.773 27.54 148.653 27.54C147.413 27.54 146.233 27.78 145.113 28.26C144.033 28.74 143.153 29.36 142.473 30.12C141.793 30.88 141.453 31.72 141.453 32.64C141.453 33.52 141.773 34.2 142.413 34.68C143.093 35.16 144.013 35.4 145.173 35.4Z" fill="#0042C2"/>
<path d="M178.387 56.16C175.187 56.16 172.607 55.7 170.647 54.78C168.727 53.86 167.327 52.36 166.447 50.28C165.887 48.92 165.467 47.3 165.187 45.42C164.947 43.5 164.827 41.28 164.827 38.76C164.827 35 164.987 31.76 165.307 29.04C165.627 26.32 166.087 24 166.687 22.08C167.287 20.16 168.027 18.54 168.907 17.22C170.067 15.46 171.927 14.08 174.487 13.08C177.047 12.04 180.667 11.52 185.347 11.52C188.987 11.52 191.907 11.94 194.107 12.78C196.347 13.58 197.967 14.68 198.967 16.08C199.967 17.48 200.467 19.08 200.467 20.88C200.467 23.52 199.627 25.68 197.947 27.36C196.267 29 194.067 30.3 191.347 31.26V31.5C194.307 31.78 196.607 32.72 198.247 34.32C199.927 35.88 200.767 38.16 200.767 41.16C200.767 43.36 200.127 45.38 198.847 47.22C197.567 49.02 195.847 50.6 193.687 51.96C191.567 53.28 189.167 54.32 186.487 55.08C183.847 55.8 181.147 56.16 178.387 56.16ZM182.407 45.48C183.607 45.48 184.667 45.3 185.587 44.94C186.507 44.58 187.227 44.08 187.747 43.44C188.307 42.8 188.587 42.06 188.587 41.22C188.587 40.18 188.127 39.32 187.207 38.64C186.327 37.92 184.947 37.56 183.067 37.56C181.587 37.56 180.327 37.94 179.287 38.7C178.287 39.42 177.787 40.48 177.787 41.88C177.787 43.12 178.167 44.04 178.927 44.64C179.687 45.2 180.847 45.48 182.407 45.48ZM182.407 28.38C184.167 28.38 185.607 28.02 186.727 27.3C187.847 26.58 188.407 25.6 188.407 24.36C188.407 23.44 187.947 22.7 187.027 22.14C186.147 21.54 184.887 21.24 183.247 21.24C181.767 21.24 180.547 21.56 179.587 22.2C178.667 22.84 178.207 23.78 178.207 25.02C178.207 26.14 178.587 26.98 179.347 27.54C180.107 28.1 181.127 28.38 182.407 28.38Z" fill="#0042C2"/>
<path d="M229.901 55.5C228.261 55.5 227.001 55.14 226.121 54.42C225.241 53.66 224.641 52.7 224.321 51.54C224.041 50.34 223.901 49.08 223.901 47.76L224.201 47.52C223.601 49.24 222.681 50.72 221.441 51.96C220.241 53.2 218.861 54.16 217.301 54.84C215.781 55.48 214.241 55.8 212.681 55.8C210.321 55.8 208.341 55.3 206.741 54.3C205.141 53.26 203.841 51.62 202.841 49.38C202.001 47.5 201.321 44.98 200.801 41.82C200.321 38.66 200.081 35.38 200.081 31.98C200.081 30.42 200.141 29 200.261 27.72C200.421 26.4 200.641 25.3 200.921 24.42C201.401 22.9 202.201 21.78 203.321 21.06C204.481 20.34 205.861 19.98 207.461 19.98C209.341 19.98 210.821 20.6 211.901 21.84C213.021 23.04 213.681 24.72 213.881 26.88C214.001 28.08 214.101 29.46 214.181 31.02C214.261 32.54 214.341 34.04 214.421 35.52C214.501 37 214.581 38.28 214.661 39.36C214.821 40.84 215.181 41.94 215.741 42.66C216.301 43.34 217.081 43.68 218.081 43.68C219.241 43.68 220.121 43.12 220.721 42C221.361 40.84 221.681 39.26 221.681 37.26C221.681 36.18 221.621 34.96 221.501 33.6C221.421 32.24 221.341 30.92 221.261 29.64C221.181 28.32 221.141 27.24 221.141 26.4C221.141 23.68 221.661 21.74 222.701 20.58C223.781 19.42 225.281 18.84 227.201 18.84C228.761 18.84 230.101 19.18 231.221 19.86C232.341 20.5 233.161 21.44 233.681 22.68C234.241 23.84 234.721 25.42 235.121 27.42C235.521 29.42 235.841 31.68 236.081 34.2C236.321 36.68 236.441 39.32 236.441 42.12C236.441 46.6 235.961 49.96 235.001 52.2C234.041 54.4 232.341 55.5 229.901 55.5Z" fill="#0042C2"/>
<path d="M242.41 56.46C241.05 56.46 239.89 56.1 238.93 55.38C238.01 54.66 237.37 53.56 237.01 52.08C236.69 50.52 236.41 48.5 236.17 46.02C235.97 43.5 235.87 40.82 235.87 37.98C235.87 36.42 235.89 34.64 235.93 32.64C236.01 30.64 236.11 28.62 236.23 26.58C236.39 24.54 236.55 22.64 236.71 20.88C236.87 19.08 237.03 17.62 237.19 16.5C237.59 14.18 238.33 12.36 239.41 11.04C240.53 9.68 242.13 9 244.21 9C246.45 9 248.09 9.72 249.13 11.16C250.17 12.56 250.69 14.28 250.69 16.32C250.69 18.08 250.55 20.16 250.27 22.56C250.03 24.96 249.65 27.4 249.13 29.88L248.41 29.52C248.85 27.8 249.53 26.26 250.45 24.9C251.37 23.5 252.55 22.4 253.99 21.6C255.43 20.76 257.15 20.34 259.15 20.34C262.95 20.34 265.95 21.74 268.15 24.54C270.39 27.3 271.51 31.62 271.51 37.5C271.51 41.62 270.89 45.06 269.65 47.82C268.41 50.58 266.71 52.66 264.55 54.06C262.39 55.42 259.93 56.1 257.17 56.1C254.61 56.1 252.47 55.36 250.75 53.88C249.03 52.4 247.91 50.26 247.39 47.46L248.65 48.12C248.17 51 247.41 53.12 246.37 54.48C245.37 55.8 244.05 56.46 242.41 56.46ZM253.69 46.02C254.97 46.02 256.07 45.38 256.99 44.1C257.95 42.82 258.43 40.82 258.43 38.1C258.43 35.94 258.05 34.18 257.29 32.82C256.57 31.46 255.33 30.78 253.57 30.78C252.13 30.78 250.97 31.38 250.09 32.58C249.21 33.78 248.77 35.6 248.77 38.04C248.77 40.36 249.21 42.28 250.09 43.8C251.01 45.28 252.21 46.02 253.69 46.02Z" fill="#0042C2"/>
<path d="M288.485 18.3C292.805 18.3 295.905 19.06 297.785 20.58C299.705 22.06 300.665 23.98 300.665 26.34C300.665 27.82 300.165 29.04 299.165 30C298.205 30.96 296.845 31.44 295.085 31.44C293.805 31.44 292.425 31.24 290.945 30.84C289.505 30.4 287.845 30.18 285.965 30.18C285.085 30.18 284.405 30.34 283.925 30.66C283.485 30.98 283.265 31.4 283.265 31.92C283.265 32.44 283.505 32.88 283.985 33.24C284.505 33.56 285.625 33.82 287.345 34.02C290.385 34.26 292.945 34.74 295.025 35.46C297.145 36.18 298.745 37.3 299.825 38.82C300.905 40.3 301.445 42.36 301.445 45C301.445 48.88 299.985 51.7 297.065 53.46C294.185 55.22 290.165 56.1 285.005 56.1C281.445 56.1 278.585 55.76 276.425 55.08C274.265 54.36 272.705 53.38 271.745 52.14C270.785 50.86 270.305 49.4 270.305 47.76C270.305 46.16 270.825 44.92 271.865 44.04C272.945 43.12 274.205 42.66 275.645 42.66C276.565 42.66 277.545 42.8 278.585 43.08C279.625 43.32 280.725 43.58 281.885 43.86C283.045 44.14 284.225 44.28 285.425 44.28C287.025 44.28 287.825 43.82 287.825 42.9C287.825 42.58 287.725 42.3 287.525 42.06C287.365 41.78 286.985 41.54 286.385 41.34C285.825 41.1 284.945 40.92 283.745 40.8C281.065 40.48 278.745 40 276.785 39.36C274.825 38.72 273.305 37.74 272.225 36.42C271.145 35.06 270.605 33.22 270.605 30.9C270.605 27.14 272.165 24.1 275.285 21.78C278.405 19.46 282.805 18.3 288.485 18.3Z" fill="#0042C2"/>
<path d="M308.334 9.84C310.814 9.84 312.574 10.42 313.614 11.58C314.694 12.74 315.234 14.08 315.234 15.6C315.234 17.44 314.574 18.88 313.254 19.92C311.934 20.92 310.094 21.42 307.734 21.42C305.414 21.42 303.674 20.86 302.514 19.74C301.394 18.62 300.834 17.3 300.834 15.78C300.834 13.82 301.514 12.34 302.874 11.34C304.274 10.34 306.094 9.84 308.334 9.84ZM308.994 23.22C310.954 23.22 312.474 24.42 313.554 26.82C314.674 29.22 315.234 33.04 315.234 38.28C315.234 44.72 314.534 49.36 313.134 52.2C311.774 55.04 309.694 56.46 306.894 56.46C304.694 56.46 303.074 55.42 302.034 53.34C301.034 51.22 300.534 47.54 300.534 42.3C300.534 35.86 301.314 31.08 302.874 27.96C304.434 24.8 306.474 23.22 308.994 23.22Z" fill="#0042C2"/>
<path d="M334.384 56.34C329.464 56.34 325.544 55.68 322.624 54.36C319.704 53.04 317.584 51.14 316.264 48.66C314.984 46.18 314.344 43.22 314.344 39.78C314.344 35.42 315.244 31.72 317.044 28.68C318.884 25.6 321.384 23.24 324.544 21.6C327.744 19.96 331.364 19.14 335.404 19.14C340.204 19.14 343.724 20.1 345.964 22.02C348.204 23.9 349.324 26.38 349.324 29.46C349.324 31.9 348.644 34.02 347.284 35.82C345.964 37.62 344.104 39 341.704 39.96C339.344 40.92 336.604 41.4 333.484 41.4C332.044 41.4 330.644 41.3 329.284 41.1C327.924 40.9 326.704 40.64 325.624 40.32L327.064 36.96C326.944 37.92 326.884 38.88 326.884 39.84C326.884 41.56 327.504 42.78 328.744 43.5C330.024 44.22 331.784 44.58 334.024 44.58C336.184 44.58 338.024 44.36 339.544 43.92C341.064 43.44 342.404 42.98 343.564 42.54C344.724 42.06 345.824 41.82 346.864 41.82C347.584 41.82 348.324 42 349.084 42.36C349.844 42.72 350.484 43.28 351.004 44.04C351.524 44.8 351.784 45.82 351.784 47.1C351.784 48.86 351.124 50.44 349.804 51.84C348.484 53.24 346.524 54.34 343.924 55.14C341.364 55.94 338.184 56.34 334.384 56.34ZM330.904 35.4C332.824 35.4 334.484 34.94 335.884 34.02C337.284 33.06 337.984 31.9 337.984 30.54C337.984 29.66 337.664 28.94 337.024 28.38C336.384 27.82 335.504 27.54 334.384 27.54C333.144 27.54 331.964 27.78 330.844 28.26C329.764 28.74 328.884 29.36 328.204 30.12C327.524 30.88 327.184 31.72 327.184 32.64C327.184 33.52 327.504 34.2 328.144 34.68C328.824 35.16 329.744 35.4 330.904 35.4Z" fill="#0042C2"/>
<path d="M34.86 56.52C29.74 56.52 25.48 55.68 22.08 54C18.68 52.28 16.14 49.88 14.46 46.8C12.82 43.72 12 40.12 12 36C12 31.44 12.94 27.46 14.82 24.06C16.7 20.62 19.4 17.96 22.92 16.08C26.48 14.2 30.76 13.26 35.76 13.26C40.44 13.26 44.02 14.2 46.5 16.08C49.02 17.92 50.28 20.46 50.28 23.7C50.28 26.06 49.62 27.94 48.3 29.34C47.02 30.7 45.14 31.38 42.66 31.38C41.3 31.38 40.12 31.2 39.12 30.84C38.12 30.48 37.12 30.14 36.12 29.82C35.12 29.46 33.96 29.28 32.64 29.28C31.52 29.28 30.46 29.46 29.46 29.82C28.5 30.14 27.72 30.72 27.12 31.56C26.56 32.36 26.28 33.48 26.28 34.92C26.28 36.8 26.84 38.14 27.96 38.94C29.12 39.74 30.64 40.14 32.52 40.14C33.48 40.14 34.56 40.08 35.76 39.96C36.96 39.8 38.14 39.66 39.3 39.54C40.5 39.42 41.52 39.36 42.36 39.36C44.48 39.36 46.16 39.96 47.4 41.16C48.68 42.32 49.32 44.08 49.32 46.44C49.32 49.52 48.14 51.98 45.78 53.82C43.46 55.62 39.82 56.52 34.86 56.52Z" stroke="#0042C2" stroke-width="8" mask="url(#path-1-outside-1_163_105)"/>
<path d="M78.6122 55.5C76.9722 55.5 75.7122 55.14 74.8322 54.42C73.9522 53.66 73.3522 52.7 73.0322 51.54C72.7522 50.34 72.6122 49.08 72.6122 47.76L72.9122 47.52C72.3122 49.24 71.3922 50.72 70.1522 51.96C68.9522 53.2 67.5722 54.16 66.0122 54.84C64.4922 55.48 62.9522 55.8 61.3922 55.8C59.0322 55.8 57.0522 55.3 55.4522 54.3C53.8522 53.26 52.5522 51.62 51.5522 49.38C50.7122 47.5 50.0322 44.98 49.5122 41.82C49.0322 38.66 48.7922 35.38 48.7922 31.98C48.7922 30.42 48.8522 29 48.9722 27.72C49.1322 26.4 49.3522 25.3 49.6322 24.42C50.1122 22.9 50.9122 21.78 52.0322 21.06C53.1922 20.34 54.5722 19.98 56.1722 19.98C58.0522 19.98 59.5322 20.6 60.6122 21.84C61.7322 23.04 62.3922 24.72 62.5922 26.88C62.7122 28.08 62.8122 29.46 62.8922 31.02C62.9722 32.54 63.0522 34.04 63.1322 35.52C63.2122 37 63.2922 38.28 63.3722 39.36C63.5322 40.84 63.8922 41.94 64.4522 42.66C65.0122 43.34 65.7922 43.68 66.7922 43.68C67.9522 43.68 68.8322 43.12 69.4322 42C70.0722 40.84 70.3922 39.26 70.3922 37.26C70.3922 36.18 70.3322 34.96 70.2122 33.6C70.1322 32.24 70.0522 30.92 69.9722 29.64C69.8922 28.32 69.8522 27.24 69.8522 26.4C69.8522 23.68 70.3722 21.74 71.4122 20.58C72.4922 19.42 73.9922 18.84 75.9122 18.84C77.4722 18.84 78.8122 19.18 79.9322 19.86C81.0522 20.5 81.8722 21.44 82.3922 22.68C82.9522 23.84 83.4322 25.42 83.8322 27.42C84.2322 29.42 84.5522 31.68 84.7922 34.2C85.0322 36.68 85.1522 39.32 85.1522 42.12C85.1522 46.6 84.6722 49.96 83.7122 52.2C82.7522 54.4 81.0522 55.5 78.6122 55.5Z" stroke="#0042C2" stroke-width="8" mask="url(#path-1-outside-1_163_105)"/>
<path d="M94.8412 19.74H94.2412C94.0413 17.98 94.1012 16.32 94.4212 14.76C94.7412 13.16 95.4212 11.88 96.4613 10.92C97.5013 9.92 99.0013 9.42 100.961 9.42C102.961 9.42 104.421 9.88 105.341 10.8C106.261 11.72 106.721 13 106.721 14.64C106.721 16.72 106.241 18.5 105.281 19.98L104.801 19.86C106.201 19.1 107.741 18.72 109.421 18.72C111.501 18.72 113.161 19.22 114.401 20.22C115.681 21.18 116.321 22.84 116.321 25.2C116.321 27.4 115.601 29.08 114.161 30.24C112.721 31.36 110.921 31.92 108.761 31.92C108.001 31.92 107.181 31.88 106.301 31.8C105.461 31.68 104.641 31.5 103.841 31.26L104.141 30.6C104.661 31.8 105.161 33.16 105.641 34.68C106.121 36.16 106.541 37.72 106.901 39.36C107.301 40.96 107.601 42.54 107.801 44.1C108.041 45.62 108.161 46.98 108.161 48.18C108.161 50.74 107.521 52.76 106.241 54.24C105.001 55.72 103.081 56.46 100.481 56.46C98.8813 56.46 97.5413 56.18 96.4613 55.62C95.3812 55.06 94.5212 54.28 93.8812 53.28C93.2412 52.28 92.7812 51.1 92.5013 49.74C92.2213 48.34 92.0813 46.84 92.0813 45.24C92.0813 43.88 92.1813 42.36 92.3812 40.68C92.6212 38.96 92.9613 37.18 93.4013 35.34C93.8413 33.5 94.3613 31.74 94.9613 30.06L95.5612 31.56C94.2812 32.6 92.6612 33.12 90.7012 33.12C88.5013 33.12 86.7812 32.58 85.5413 31.5C84.3013 30.38 83.6813 28.68 83.6813 26.4C83.6813 24.04 84.3412 22.22 85.6612 20.94C87.0212 19.66 88.8413 19.02 91.1213 19.02C91.8413 19.02 92.5212 19.1 93.1612 19.26C93.8012 19.38 94.3612 19.54 94.8412 19.74Z" stroke="#0042C2" stroke-width="8" mask="url(#path-1-outside-1_163_105)"/>
<path d="M122.604 9.84C125.084 9.84 126.844 10.42 127.884 11.58C128.964 12.74 129.504 14.08 129.504 15.6C129.504 17.44 128.844 18.88 127.524 19.92C126.204 20.92 124.364 21.42 122.004 21.42C119.684 21.42 117.944 20.86 116.784 19.74C115.664 18.62 115.104 17.3 115.104 15.78C115.104 13.82 115.784 12.34 117.144 11.34C118.544 10.34 120.364 9.84 122.604 9.84ZM123.264 23.22C125.224 23.22 126.744 24.42 127.824 26.82C128.944 29.22 129.504 33.04 129.504 38.28C129.504 44.72 128.804 49.36 127.404 52.2C126.044 55.04 123.964 56.46 121.164 56.46C118.964 56.46 117.344 55.42 116.304 53.34C115.304 51.22 114.804 47.54 114.804 42.3C114.804 35.86 115.584 31.08 117.144 27.96C118.704 24.8 120.744 23.22 123.264 23.22Z" stroke="#0042C2" stroke-width="8" mask="url(#path-1-outside-1_163_105)"/>
<path d="M148.653 56.34C143.733 56.34 139.813 55.68 136.893 54.36C133.973 53.04 131.853 51.14 130.533 48.66C129.253 46.18 128.613 43.22 128.613 39.78C128.613 35.42 129.513 31.72 131.313 28.68C133.153 25.6 135.653 23.24 138.813 21.6C142.013 19.96 145.633 19.14 149.673 19.14C154.473 19.14 157.993 20.1 160.233 22.02C162.473 23.9 163.593 26.38 163.593 29.46C163.593 31.9 162.913 34.02 161.553 35.82C160.233 37.62 158.373 39 155.973 39.96C153.613 40.92 150.873 41.4 147.753 41.4C146.313 41.4 144.913 41.3 143.553 41.1C142.193 40.9 140.973 40.64 139.893 40.32L141.333 36.96C141.213 37.92 141.153 38.88 141.153 39.84C141.153 41.56 141.773 42.78 143.013 43.5C144.293 44.22 146.053 44.58 148.293 44.58C150.453 44.58 152.293 44.36 153.813 43.92C155.333 43.44 156.673 42.98 157.833 42.54C158.993 42.06 160.093 41.82 161.133 41.82C161.853 41.82 162.593 42 163.353 42.36C164.113 42.72 164.753 43.28 165.273 44.04C165.793 44.8 166.053 45.82 166.053 47.1C166.053 48.86 165.393 50.44 164.073 51.84C162.753 53.24 160.793 54.34 158.193 55.14C155.633 55.94 152.453 56.34 148.653 56.34ZM145.173 35.4C147.093 35.4 148.753 34.94 150.153 34.02C151.553 33.06 152.253 31.9 152.253 30.54C152.253 29.66 151.933 28.94 151.293 28.38C150.653 27.82 149.773 27.54 148.653 27.54C147.413 27.54 146.233 27.78 145.113 28.26C144.033 28.74 143.153 29.36 142.473 30.12C141.793 30.88 141.453 31.72 141.453 32.64C141.453 33.52 141.773 34.2 142.413 34.68C143.093 35.16 144.013 35.4 145.173 35.4Z" stroke="#0042C2" stroke-width="8" mask="url(#path-1-outside-1_163_105)"/>
<path d="M178.387 56.16C175.187 56.16 172.607 55.7 170.647 54.78C168.727 53.86 167.327 52.36 166.447 50.28C165.887 48.92 165.467 47.3 165.187 45.42C164.947 43.5 164.827 41.28 164.827 38.76C164.827 35 164.987 31.76 165.307 29.04C165.627 26.32 166.087 24 166.687 22.08C167.287 20.16 168.027 18.54 168.907 17.22C170.067 15.46 171.927 14.08 174.487 13.08C177.047 12.04 180.667 11.52 185.347 11.52C188.987 11.52 191.907 11.94 194.107 12.78C196.347 13.58 197.967 14.68 198.967 16.08C199.967 17.48 200.467 19.08 200.467 20.88C200.467 23.52 199.627 25.68 197.947 27.36C196.267 29 194.067 30.3 191.347 31.26V31.5C194.307 31.78 196.607 32.72 198.247 34.32C199.927 35.88 200.767 38.16 200.767 41.16C200.767 43.36 200.127 45.38 198.847 47.22C197.567 49.02 195.847 50.6 193.687 51.96C191.567 53.28 189.167 54.32 186.487 55.08C183.847 55.8 181.147 56.16 178.387 56.16ZM182.407 45.48C183.607 45.48 184.667 45.3 185.587 44.94C186.507 44.58 187.227 44.08 187.747 43.44C188.307 42.8 188.587 42.06 188.587 41.22C188.587 40.18 188.127 39.32 187.207 38.64C186.327 37.92 184.947 37.56 183.067 37.56C181.587 37.56 180.327 37.94 179.287 38.7C178.287 39.42 177.787 40.48 177.787 41.88C177.787 43.12 178.167 44.04 178.927 44.64C179.687 45.2 180.847 45.48 182.407 45.48ZM182.407 28.38C184.167 28.38 185.607 28.02 186.727 27.3C187.847 26.58 188.407 25.6 188.407 24.36C188.407 23.44 187.947 22.7 187.027 22.14C186.147 21.54 184.887 21.24 183.247 21.24C181.767 21.24 180.547 21.56 179.587 22.2C178.667 22.84 178.207 23.78 178.207 25.02C178.207 26.14 178.587 26.98 179.347 27.54C180.107 28.1 181.127 28.38 182.407 28.38Z" stroke="#0042C2" stroke-width="8" mask="url(#path-1-outside-1_163_105)"/>
<path d="M229.901 55.5C228.261 55.5 227.001 55.14 226.121 54.42C225.241 53.66 224.641 52.7 224.321 51.54C224.041 50.34 223.901 49.08 223.901 47.76L224.201 47.52C223.601 49.24 222.681 50.72 221.441 51.96C220.241 53.2 218.861 54.16 217.301 54.84C215.781 55.48 214.241 55.8 212.681 55.8C210.321 55.8 208.341 55.3 206.741 54.3C205.141 53.26 203.841 51.62 202.841 49.38C202.001 47.5 201.321 44.98 200.801 41.82C200.321 38.66 200.081 35.38 200.081 31.98C200.081 30.42 200.141 29 200.261 27.72C200.421 26.4 200.641 25.3 200.921 24.42C201.401 22.9 202.201 21.78 203.321 21.06C204.481 20.34 205.861 19.98 207.461 19.98C209.341 19.98 210.821 20.6 211.901 21.84C213.021 23.04 213.681 24.72 213.881 26.88C214.001 28.08 214.101 29.46 214.181 31.02C214.261 32.54 214.341 34.04 214.421 35.52C214.501 37 214.581 38.28 214.661 39.36C214.821 40.84 215.181 41.94 215.741 42.66C216.301 43.34 217.081 43.68 218.081 43.68C219.241 43.68 220.121 43.12 220.721 42C221.361 40.84 221.681 39.26 221.681 37.26C221.681 36.18 221.621 34.96 221.501 33.6C221.421 32.24 221.341 30.92 221.261 29.64C221.181 28.32 221.141 27.24 221.141 26.4C221.141 23.68 221.661 21.74 222.701 20.58C223.781 19.42 225.281 18.84 227.201 18.84C228.761 18.84 230.101 19.18 231.221 19.86C232.341 20.5 233.161 21.44 233.681 22.68C234.241 23.84 234.721 25.42 235.121 27.42C235.521 29.42 235.841 31.68 236.081 34.2C236.321 36.68 236.441 39.32 236.441 42.12C236.441 46.6 235.961 49.96 235.001 52.2C234.041 54.4 232.341 55.5 229.901 55.5Z" stroke="#0042C2" stroke-width="8" mask="url(#path-1-outside-1_163_105)"/>
<path d="M242.41 56.46C241.05 56.46 239.89 56.1 238.93 55.38C238.01 54.66 237.37 53.56 237.01 52.08C236.69 50.52 236.41 48.5 236.17 46.02C235.97 43.5 235.87 40.82 235.87 37.98C235.87 36.42 235.89 34.64 235.93 32.64C236.01 30.64 236.11 28.62 236.23 26.58C236.39 24.54 236.55 22.64 236.71 20.88C236.87 19.08 237.03 17.62 237.19 16.5C237.59 14.18 238.33 12.36 239.41 11.04C240.53 9.68 242.13 9 244.21 9C246.45 9 248.09 9.72 249.13 11.16C250.17 12.56 250.69 14.28 250.69 16.32C250.69 18.08 250.55 20.16 250.27 22.56C250.03 24.96 249.65 27.4 249.13 29.88L248.41 29.52C248.85 27.8 249.53 26.26 250.45 24.9C251.37 23.5 252.55 22.4 253.99 21.6C255.43 20.76 257.15 20.34 259.15 20.34C262.95 20.34 265.95 21.74 268.15 24.54C270.39 27.3 271.51 31.62 271.51 37.5C271.51 41.62 270.89 45.06 269.65 47.82C268.41 50.58 266.71 52.66 264.55 54.06C262.39 55.42 259.93 56.1 257.17 56.1C254.61 56.1 252.47 55.36 250.75 53.88C249.03 52.4 247.91 50.26 247.39 47.46L248.65 48.12C248.17 51 247.41 53.12 246.37 54.48C245.37 55.8 244.05 56.46 242.41 56.46ZM253.69 46.02C254.97 46.02 256.07 45.38 256.99 44.1C257.95 42.82 258.43 40.82 258.43 38.1C258.43 35.94 258.05 34.18 257.29 32.82C256.57 31.46 255.33 30.78 253.57 30.78C252.13 30.78 250.97 31.38 250.09 32.58C249.21 33.78 248.77 35.6 248.77 38.04C248.77 40.36 249.21 42.28 250.09 43.8C251.01 45.28 252.21 46.02 253.69 46.02Z" stroke="#0042C2" stroke-width="8" mask="url(#path-1-outside-1_163_105)"/>
<path d="M288.485 18.3C292.805 18.3 295.905 19.06 297.785 20.58C299.705 22.06 300.665 23.98 300.665 26.34C300.665 27.82 300.165 29.04 299.165 30C298.205 30.96 296.845 31.44 295.085 31.44C293.805 31.44 292.425 31.24 290.945 30.84C289.505 30.4 287.845 30.18 285.965 30.18C285.085 30.18 284.405 30.34 283.925 30.66C283.485 30.98 283.265 31.4 283.265 31.92C283.265 32.44 283.505 32.88 283.985 33.24C284.505 33.56 285.625 33.82 287.345 34.02C290.385 34.26 292.945 34.74 295.025 35.46C297.145 36.18 298.745 37.3 299.825 38.82C300.905 40.3 301.445 42.36 301.445 45C301.445 48.88 299.985 51.7 297.065 53.46C294.185 55.22 290.165 56.1 285.005 56.1C281.445 56.1 278.585 55.76 276.425 55.08C274.265 54.36 272.705 53.38 271.745 52.14C270.785 50.86 270.305 49.4 270.305 47.76C270.305 46.16 270.825 44.92 271.865 44.04C272.945 43.12 274.205 42.66 275.645 42.66C276.565 42.66 277.545 42.8 278.585 43.08C279.625 43.32 280.725 43.58 281.885 43.86C283.045 44.14 284.225 44.28 285.425 44.28C287.025 44.28 287.825 43.82 287.825 42.9C287.825 42.58 287.725 42.3 287.525 42.06C287.365 41.78 286.985 41.54 286.385 41.34C285.825 41.1 284.945 40.92 283.745 40.8C281.065 40.48 278.745 40 276.785 39.36C274.825 38.72 273.305 37.74 272.225 36.42C271.145 35.06 270.605 33.22 270.605 30.9C270.605 27.14 272.165 24.1 275.285 21.78C278.405 19.46 282.805 18.3 288.485 18.3Z" stroke="#0042C2" stroke-width="8" mask="url(#path-1-outside-1_163_105)"/>
<path d="M308.334 9.84C310.814 9.84 312.574 10.42 313.614 11.58C314.694 12.74 315.234 14.08 315.234 15.6C315.234 17.44 314.574 18.88 313.254 19.92C311.934 20.92 310.094 21.42 307.734 21.42C305.414 21.42 303.674 20.86 302.514 19.74C301.394 18.62 300.834 17.3 300.834 15.78C300.834 13.82 301.514 12.34 302.874 11.34C304.274 10.34 306.094 9.84 308.334 9.84ZM308.994 23.22C310.954 23.22 312.474 24.42 313.554 26.82C314.674 29.22 315.234 33.04 315.234 38.28C315.234 44.72 314.534 49.36 313.134 52.2C311.774 55.04 309.694 56.46 306.894 56.46C304.694 56.46 303.074 55.42 302.034 53.34C301.034 51.22 300.534 47.54 300.534 42.3C300.534 35.86 301.314 31.08 302.874 27.96C304.434 24.8 306.474 23.22 308.994 23.22Z" stroke="#0042C2" stroke-width="8" mask="url(#path-1-outside-1_163_105)"/>
<path d="M334.384 56.34C329.464 56.34 325.544 55.68 322.624 54.36C319.704 53.04 317.584 51.14 316.264 48.66C314.984 46.18 314.344 43.22 314.344 39.78C314.344 35.42 315.244 31.72 317.044 28.68C318.884 25.6 321.384 23.24 324.544 21.6C327.744 19.96 331.364 19.14 335.404 19.14C340.204 19.14 343.724 20.1 345.964 22.02C348.204 23.9 349.324 26.38 349.324 29.46C349.324 31.9 348.644 34.02 347.284 35.82C345.964 37.62 344.104 39 341.704 39.96C339.344 40.92 336.604 41.4 333.484 41.4C332.044 41.4 330.644 41.3 329.284 41.1C327.924 40.9 326.704 40.64 325.624 40.32L327.064 36.96C326.944 37.92 326.884 38.88 326.884 39.84C326.884 41.56 327.504 42.78 328.744 43.5C330.024 44.22 331.784 44.58 334.024 44.58C336.184 44.58 338.024 44.36 339.544 43.92C341.064 43.44 342.404 42.98 343.564 42.54C344.724 42.06 345.824 41.82 346.864 41.82C347.584 41.82 348.324 42 349.084 42.36C349.844 42.72 350.484 43.28 351.004 44.04C351.524 44.8 351.784 45.82 351.784 47.1C351.784 48.86 351.124 50.44 349.804 51.84C348.484 53.24 346.524 54.34 343.924 55.14C341.364 55.94 338.184 56.34 334.384 56.34ZM330.904 35.4C332.824 35.4 334.484 34.94 335.884 34.02C337.284 33.06 337.984 31.9 337.984 30.54C337.984 29.66 337.664 28.94 337.024 28.38C336.384 27.82 335.504 27.54 334.384 27.54C333.144 27.54 331.964 27.78 330.844 28.26C329.764 28.74 328.884 29.36 328.204 30.12C327.524 30.88 327.184 31.72 327.184 32.64C327.184 33.52 327.504 34.2 328.144 34.68C328.824 35.16 329.744 35.4 330.904 35.4Z" stroke="#0042C2" stroke-width="8" mask="url(#path-1-outside-1_163_105)"/>
<path d="M334.384 56.3399C329.464 56.3399 325.544 55.6799 322.624 54.3599C319.704 53.0399 317.584 51.1399 316.264 48.6599C314.984 46.1799 314.344 43.2199 314.344 39.7799C314.344 35.4199 315.244 31.7199 317.044 28.6799C318.884 25.5999 321.384 23.2399 324.544 21.5999C327.744 19.9599 331.364 19.1399 335.404 19.1399C340.204 19.1399 343.724 20.0999 345.964 22.0199C348.204 23.8999 349.324 26.3799 349.324 29.4599C349.324 31.8999 348.644 34.0199 347.284 35.8199C345.964 37.6199 344.104 38.9999 341.704 39.9599C339.344 40.9199 336.604 41.3999 333.484 41.3999C332.044 41.3999 330.644 41.2999 329.284 41.0999C327.924 40.8999 326.704 40.6399 325.624 40.3199L327.064 36.9599C326.944 37.9199 326.884 38.8799 326.884 39.8399C326.884 41.5599 327.504 42.7799 328.744 43.4999C330.024 44.2199 331.784 44.5799 334.024 44.5799C336.184 44.5799 338.024 44.3599 339.544 43.9199C341.064 43.4399 342.404 42.9799 343.564 42.5399C344.724 42.0599 345.824 41.8199 346.864 41.8199C347.584 41.8199 348.324 41.9999 349.084 42.3599C349.844 42.7199 350.484 43.2799 351.004 44.0399C351.524 44.7999 351.784 45.8199 351.784 47.0999C351.784 48.8599 351.124 50.4399 349.804 51.8399C348.484 53.2399 346.524 54.3399 343.924 55.1399C341.364 55.9399 338.184 56.3399 334.384 56.3399ZM330.904 35.3999C332.824 35.3999 334.484 34.9399 335.884 34.0199C337.284 33.0599 337.984 31.8999 337.984 30.5399C337.984 29.6599 337.664 28.9399 337.024 28.3799C336.384 27.8199 335.504 27.5399 334.384 27.5399C333.144 27.5399 331.964 27.7799 330.844 28.2599C329.764 28.7399 328.884 29.3599 328.204 30.1199C327.524 30.8799 327.184 31.7199 327.184 32.6399C327.184 33.5199 327.504 34.1999 328.144 34.6799C328.824 35.1599 329.744 35.3999 330.904 35.3999Z" fill="#5AA6FF"/>
<path d="M308.335 9.83997C310.815 9.83997 312.575 10.42 313.615 11.58C314.695 12.74 315.235 14.08 315.235 15.6C315.235 17.44 314.575 18.88 313.255 19.92C311.935 20.92 310.095 21.42 307.735 21.42C305.415 21.42 303.675 20.86 302.515 19.74C301.395 18.62 300.835 17.3 300.835 15.78C300.835 13.82 301.515 12.34 302.875 11.34C304.275 10.34 306.095 9.83997 308.335 9.83997ZM308.995 23.22C310.955 23.22 312.475 24.42 313.555 26.82C314.675 29.22 315.235 33.04 315.235 38.28C315.235 44.72 314.535 49.36 313.135 52.2C311.775 55.04 309.695 56.46 306.895 56.46C304.695 56.46 303.075 55.42 302.035 53.34C301.035 51.22 300.535 47.54 300.535 42.3C300.535 35.86 301.315 31.08 302.875 27.96C304.435 24.8 306.475 23.22 308.995 23.22Z" fill="#FF66AB"/>
<path d="M288.485 18.3C292.805 18.3 295.905 19.0601 297.785 20.5801C299.705 22.0601 300.665 23.9801 300.665 26.3401C300.665 27.8201 300.165 29.0401 299.165 30.0001C298.205 30.9601 296.845 31.4401 295.085 31.4401C293.805 31.4401 292.425 31.2401 290.945 30.84C289.505 30.4 287.845 30.18 285.965 30.18C285.085 30.18 284.405 30.3401 283.925 30.6601C283.485 30.9801 283.265 31.4001 283.265 31.9201C283.265 32.4401 283.505 32.8801 283.985 33.2401C284.505 33.5601 285.625 33.8201 287.345 34.0201C290.385 34.2601 292.945 34.7401 295.025 35.4601C297.145 36.1801 298.745 37.3001 299.825 38.8201C300.905 40.3001 301.445 42.3601 301.445 45.0001C301.445 48.8801 299.985 51.7001 297.065 53.4601C294.185 55.2201 290.165 56.1001 285.005 56.1001C281.445 56.1001 278.585 55.7601 276.425 55.0801C274.265 54.3601 272.705 53.3801 271.745 52.1401C270.785 50.8601 270.305 49.4001 270.305 47.7601C270.305 46.1601 270.825 44.9201 271.865 44.0401C272.945 43.1201 274.205 42.6601 275.645 42.6601C276.565 42.6601 277.545 42.8 278.585 43.08C279.625 43.32 280.725 43.5801 281.885 43.8601C283.045 44.1401 284.225 44.2801 285.425 44.2801C287.025 44.2801 287.825 43.8201 287.825 42.9001C287.825 42.5801 287.725 42.3001 287.525 42.0601C287.365 41.7801 286.985 41.5401 286.385 41.3401C285.825 41.1001 284.945 40.9201 283.745 40.8001C281.065 40.4801 278.745 40.0001 276.785 39.3601C274.825 38.7201 273.305 37.7401 272.225 36.4201C271.145 35.0601 270.605 33.2201 270.605 30.9001C270.605 27.14 272.165 24.1 275.285 21.7801C278.405 19.46 282.805 18.3 288.485 18.3Z" fill="#FFE065"/>
<path d="M242.41 56.46C241.05 56.46 239.89 56.1 238.93 55.38C238.01 54.66 237.37 53.56 237.01 52.08C236.69 50.52 236.41 48.5 236.17 46.02C235.97 43.5 235.87 40.82 235.87 37.98C235.87 36.42 235.89 34.64 235.93 32.64C236.01 30.64 236.11 28.62 236.23 26.58C236.39 24.54 236.55 22.64 236.71 20.88C236.87 19.08 237.03 17.62 237.19 16.5C237.59 14.18 238.33 12.36 239.41 11.04C240.53 9.68 242.13 9 244.21 9C246.45 9 248.09 9.72 249.13 11.16C250.17 12.56 250.69 14.28 250.69 16.32C250.69 18.08 250.55 20.16 250.27 22.56C250.03 24.96 249.65 27.4 249.13 29.88L248.41 29.52C248.85 27.8 249.53 26.26 250.45 24.9C251.37 23.5 252.55 22.4 253.99 21.6C255.43 20.76 257.15 20.34 259.15 20.34C262.95 20.34 265.95 21.74 268.15 24.54C270.39 27.3 271.51 31.62 271.51 37.5C271.51 41.62 270.89 45.06 269.65 47.82C268.41 50.58 266.71 52.66 264.55 54.06C262.39 55.42 259.93 56.1 257.17 56.1C254.61 56.1 252.47 55.36 250.75 53.88C249.03 52.4 247.91 50.26 247.39 47.46L248.65 48.12C248.17 51 247.41 53.12 246.37 54.48C245.37 55.8 244.05 56.46 242.41 56.46ZM253.69 46.02C254.97 46.02 256.07 45.38 256.99 44.1C257.95 42.82 258.43 40.82 258.43 38.1C258.43 35.94 258.05 34.18 257.29 32.82C256.57 31.46 255.33 30.78 253.57 30.78C252.13 30.78 250.97 31.38 250.09 32.58C249.21 33.78 248.77 35.6 248.77 38.04C248.77 40.36 249.21 42.28 250.09 43.8C251.01 45.28 252.21 46.02 253.69 46.02Z" fill="#5AA6FF"/>
<path d="M229.901 55.5C228.261 55.5 227.001 55.14 226.121 54.42C225.241 53.66 224.641 52.7 224.321 51.54C224.041 50.34 223.901 49.08 223.901 47.76L224.201 47.52C223.601 49.24 222.681 50.72 221.441 51.96C220.241 53.2 218.861 54.16 217.301 54.84C215.781 55.48 214.241 55.8 212.681 55.8C210.321 55.8 208.341 55.3 206.741 54.3C205.141 53.26 203.841 51.62 202.841 49.38C202.001 47.5 201.321 44.98 200.801 41.82C200.321 38.66 200.081 35.38 200.081 31.98C200.081 30.42 200.141 29 200.261 27.72C200.421 26.4 200.641 25.3 200.921 24.42C201.401 22.9 202.201 21.78 203.321 21.06C204.481 20.34 205.861 19.98 207.461 19.98C209.341 19.98 210.821 20.6 211.901 21.84C213.021 23.04 213.681 24.72 213.881 26.88C214.001 28.08 214.101 29.46 214.181 31.02C214.261 32.54 214.341 34.04 214.421 35.52C214.501 37 214.581 38.28 214.661 39.36C214.821 40.84 215.181 41.94 215.741 42.66C216.301 43.34 217.081 43.68 218.081 43.68C219.241 43.68 220.121 43.12 220.721 42C221.361 40.84 221.681 39.26 221.681 37.26C221.681 36.18 221.621 34.96 221.501 33.6C221.421 32.24 221.341 30.92 221.261 29.64C221.181 28.32 221.141 27.24 221.141 26.4C221.141 23.68 221.661 21.74 222.701 20.58C223.781 19.42 225.281 18.84 227.201 18.84C228.761 18.84 230.101 19.18 231.221 19.86C232.341 20.5 233.161 21.44 233.681 22.68C234.241 23.84 234.721 25.42 235.121 27.42C235.521 29.42 235.841 31.68 236.081 34.2C236.321 36.68 236.441 39.32 236.441 42.12C236.441 46.6 235.961 49.96 235.001 52.2C234.041 54.4 232.341 55.5 229.901 55.5Z" fill="#FF66AB"/>
<path d="M178.387 56.16C175.187 56.16 172.607 55.7 170.647 54.78C168.727 53.86 167.327 52.36 166.447 50.28C165.887 48.92 165.467 47.3 165.187 45.42C164.947 43.5 164.827 41.28 164.827 38.76C164.827 35 164.987 31.76 165.307 29.04C165.627 26.32 166.087 24 166.687 22.08C167.287 20.16 168.027 18.54 168.907 17.22C170.067 15.46 171.927 14.08 174.487 13.08C177.047 12.04 180.667 11.52 185.347 11.52C188.987 11.52 191.907 11.94 194.107 12.78C196.347 13.58 197.967 14.68 198.967 16.08C199.967 17.48 200.467 19.08 200.467 20.88C200.467 23.52 199.627 25.68 197.947 27.36C196.267 29 194.067 30.3 191.347 31.26V31.5C194.307 31.78 196.607 32.72 198.247 34.32C199.927 35.88 200.767 38.16 200.767 41.16C200.767 43.36 200.127 45.38 198.847 47.22C197.567 49.02 195.847 50.6 193.687 51.96C191.567 53.28 189.167 54.32 186.487 55.08C183.847 55.8 181.147 56.16 178.387 56.16ZM182.407 45.48C183.607 45.48 184.667 45.3 185.587 44.94C186.507 44.58 187.227 44.08 187.747 43.44C188.307 42.8 188.587 42.06 188.587 41.22C188.587 40.18 188.127 39.32 187.207 38.64C186.327 37.92 184.947 37.56 183.067 37.56C181.587 37.56 180.327 37.94 179.287 38.7C178.287 39.42 177.787 40.48 177.787 41.88C177.787 43.12 178.167 44.04 178.927 44.64C179.687 45.2 180.847 45.48 182.407 45.48ZM182.407 28.38C184.167 28.38 185.607 28.02 186.727 27.3C187.847 26.58 188.407 25.6 188.407 24.36C188.407 23.44 187.947 22.7 187.027 22.14C186.147 21.54 184.887 21.24 183.247 21.24C181.767 21.24 180.547 21.56 179.587 22.2C178.667 22.84 178.207 23.78 178.207 25.02C178.207 26.14 178.587 26.98 179.347 27.54C180.107 28.1 181.127 28.38 182.407 28.38Z" fill="#FFE065"/>
<path d="M148.653 56.3399C143.733 56.3399 139.813 55.6799 136.893 54.3599C133.973 53.0399 131.853 51.1399 130.533 48.6599C129.253 46.1799 128.613 43.2199 128.613 39.7799C128.613 35.4199 129.513 31.7199 131.313 28.6799C133.153 25.5999 135.653 23.2399 138.813 21.5999C142.013 19.9599 145.633 19.1399 149.673 19.1399C154.473 19.1399 157.993 20.0999 160.233 22.0199C162.473 23.8999 163.593 26.3799 163.593 29.4599C163.593 31.8999 162.913 34.0199 161.553 35.8199C160.233 37.6199 158.373 38.9999 155.973 39.9599C153.613 40.9199 150.873 41.3999 147.753 41.3999C146.313 41.3999 144.913 41.2999 143.553 41.0999C142.193 40.8999 140.973 40.6399 139.893 40.3199L141.333 36.9599C141.213 37.9199 141.153 38.8799 141.153 39.8399C141.153 41.5599 141.773 42.7799 143.013 43.4999C144.293 44.2199 146.053 44.5799 148.293 44.5799C150.453 44.5799 152.293 44.3599 153.813 43.9199C155.333 43.4399 156.673 42.9799 157.833 42.5399C158.993 42.0599 160.093 41.8199 161.133 41.8199C161.853 41.8199 162.593 41.9999 163.353 42.3599C164.113 42.7199 164.753 43.2799 165.273 44.0399C165.793 44.7999 166.053 45.8199 166.053 47.0999C166.053 48.8599 165.393 50.4399 164.073 51.8399C162.753 53.2399 160.793 54.3399 158.193 55.1399C155.633 55.9399 152.453 56.3399 148.653 56.3399ZM145.173 35.3999C147.093 35.3999 148.753 34.9399 150.153 34.0199C151.553 33.0599 152.253 31.8999 152.253 30.5399C152.253 29.6599 151.933 28.9399 151.293 28.3799C150.653 27.8199 149.773 27.5399 148.653 27.5399C147.413 27.5399 146.233 27.7799 145.113 28.2599C144.033 28.7399 143.153 29.3599 142.473 30.1199C141.793 30.8799 141.453 31.7199 141.453 32.6399C141.453 33.5199 141.773 34.1999 142.413 34.6799C143.093 35.1599 144.013 35.3999 145.173 35.3999Z" fill="#5AA6FF"/>
<path d="M122.604 9.83997C125.084 9.83997 126.844 10.42 127.884 11.58C128.964 12.74 129.504 14.08 129.504 15.6C129.504 17.44 128.844 18.88 127.524 19.92C126.204 20.92 124.364 21.42 122.004 21.42C119.684 21.42 117.944 20.86 116.784 19.74C115.664 18.62 115.104 17.3 115.104 15.78C115.104 13.82 115.784 12.34 117.144 11.34C118.544 10.34 120.364 9.83997 122.604 9.83997ZM123.264 23.22C125.224 23.22 126.744 24.42 127.824 26.82C128.944 29.22 129.504 33.04 129.504 38.28C129.504 44.72 128.804 49.36 127.404 52.2C126.044 55.04 123.964 56.46 121.164 56.46C118.964 56.46 117.344 55.42 116.304 53.34C115.304 51.22 114.804 47.54 114.804 42.3C114.804 35.86 115.584 31.08 117.144 27.96C118.704 24.8 120.744 23.22 123.264 23.22Z" fill="#FF66AB"/>
<path d="M94.8414 19.7399H94.2414C94.0414 17.9799 94.1014 16.3199 94.4214 14.7599C94.7414 13.1599 95.4214 11.8799 96.4614 10.9199C97.5014 9.91992 99.0014 9.41992 100.961 9.41992C102.961 9.41992 104.421 9.87992 105.341 10.7999C106.261 11.7199 106.721 12.9999 106.721 14.6399C106.721 16.7199 106.241 18.4999 105.281 19.9799L104.801 19.8599C106.201 19.0999 107.741 18.7199 109.421 18.7199C111.501 18.7199 113.161 19.2199 114.401 20.2199C115.681 21.1799 116.321 22.8399 116.321 25.1999C116.321 27.3999 115.601 29.0799 114.161 30.2399C112.721 31.3599 110.921 31.9199 108.761 31.9199C108.001 31.9199 107.181 31.8799 106.301 31.7999C105.461 31.6799 104.641 31.4999 103.841 31.2599L104.141 30.5999C104.661 31.7999 105.161 33.1599 105.641 34.6799C106.121 36.1599 106.541 37.7199 106.901 39.3599C107.301 40.9599 107.601 42.5399 107.801 44.0999C108.041 45.6199 108.161 46.9799 108.161 48.1799C108.161 50.7399 107.521 52.7599 106.241 54.2399C105.001 55.7199 103.081 56.4599 100.481 56.4599C98.8814 56.4599 97.5414 56.1799 96.4614 55.6199C95.3814 55.0599 94.5214 54.2799 93.8814 53.2799C93.2414 52.2799 92.7814 51.0999 92.5014 49.7399C92.2214 48.3399 92.0814 46.8399 92.0814 45.2399C92.0814 43.8799 92.1814 42.3599 92.3814 40.6799C92.6214 38.9599 92.9614 37.1799 93.4014 35.3399C93.8414 33.4999 94.3614 31.7399 94.9614 30.0599L95.5614 31.5599C94.2814 32.5999 92.6614 33.1199 90.7014 33.1199C88.5014 33.1199 86.7814 32.5799 85.5414 31.4999C84.3014 30.3799 83.6814 28.6799 83.6814 26.3999C83.6814 24.0399 84.3414 22.2199 85.6614 20.9399C87.0214 19.6599 88.8414 19.0199 91.1214 19.0199C91.8414 19.0199 92.5214 19.0999 93.1614 19.2599C93.8014 19.3799 94.3614 19.5399 94.8414 19.7399Z" fill="#FFE065"/>
<path d="M78.6122 55.5C76.9722 55.5 75.7122 55.14 74.8322 54.42C73.9522 53.66 73.3522 52.7 73.0322 51.54C72.7522 50.34 72.6122 49.08 72.6122 47.76L72.9122 47.52C72.3122 49.24 71.3922 50.72 70.1522 51.96C68.9522 53.2 67.5722 54.16 66.0122 54.84C64.4922 55.48 62.9522 55.8 61.3922 55.8C59.0322 55.8 57.0522 55.3 55.4522 54.3C53.8522 53.26 52.5522 51.62 51.5522 49.38C50.7122 47.5 50.0322 44.98 49.5122 41.82C49.0322 38.66 48.7922 35.38 48.7922 31.98C48.7922 30.42 48.8522 29 48.9722 27.72C49.1322 26.4 49.3522 25.3 49.6322 24.42C50.1122 22.9 50.9122 21.78 52.0322 21.06C53.1922 20.34 54.5722 19.98 56.1722 19.98C58.0522 19.98 59.5322 20.6 60.6122 21.84C61.7322 23.04 62.3922 24.72 62.5922 26.88C62.7122 28.08 62.8122 29.46 62.8922 31.02C62.9722 32.54 63.0522 34.04 63.1322 35.52C63.2122 37 63.2922 38.28 63.3722 39.36C63.5322 40.84 63.8922 41.94 64.4522 42.66C65.0122 43.34 65.7922 43.68 66.7922 43.68C67.9522 43.68 68.8322 43.12 69.4322 42C70.0722 40.84 70.3922 39.26 70.3922 37.26C70.3922 36.18 70.3322 34.96 70.2122 33.6C70.1322 32.24 70.0522 30.92 69.9722 29.64C69.8922 28.32 69.8522 27.24 69.8522 26.4C69.8522 23.68 70.3722 21.74 71.4122 20.58C72.4922 19.42 73.9922 18.84 75.9122 18.84C77.4722 18.84 78.8122 19.18 79.9322 19.86C81.0522 20.5 81.8722 21.44 82.3922 22.68C82.9522 23.84 83.4322 25.42 83.8322 27.42C84.2322 29.42 84.5522 31.68 84.7922 34.2C85.0322 36.68 85.1522 39.32 85.1522 42.12C85.1522 46.6 84.6722 49.96 83.7122 52.2C82.7522 54.4 81.0522 55.5 78.6122 55.5Z" fill="#5AA6FF"/>
<path d="M34.86 56.52C29.74 56.52 25.48 55.68 22.08 54C18.68 52.28 16.14 49.88 14.46 46.8C12.82 43.72 12 40.12 12 36C12 31.44 12.94 27.46 14.82 24.06C16.7 20.62 19.4 17.96 22.92 16.08C26.48 14.2 30.76 13.26 35.76 13.26C40.44 13.26 44.02 14.2 46.5 16.08C49.02 17.92 50.28 20.46 50.28 23.7C50.28 26.06 49.62 27.94 48.3 29.34C47.02 30.7 45.14 31.38 42.66 31.38C41.3 31.38 40.12 31.2 39.12 30.84C38.12 30.48 37.12 30.14 36.12 29.82C35.12 29.46 33.96 29.28 32.64 29.28C31.52 29.28 30.46 29.46 29.46 29.82C28.5 30.14 27.72 30.72 27.12 31.56C26.56 32.36 26.28 33.48 26.28 34.92C26.28 36.8 26.84 38.14 27.96 38.94C29.12 39.74 30.64 40.14 32.52 40.14C33.48 40.14 34.56 40.08 35.76 39.96C36.96 39.8 38.14 39.66 39.3 39.54C40.5 39.42 41.52 39.36 42.36 39.36C44.48 39.36 46.16 39.96 47.4 41.16C48.68 42.32 49.32 44.08 49.32 46.44C49.32 49.52 48.14 51.98 45.78 53.82C43.46 55.62 39.82 56.52 34.86 56.52Z" fill="#FF66AB"/>
</svg>
