<svg width="363" height="110" viewBox="0 0 363 110" fill="none" xmlns="http://www.w3.org/2000/svg">
<mask id="path-1-outside-1_163_105" maskUnits="userSpaceOnUse" x="8" y="27" width="348" height="56" fill="black">
<rect fill="white" x="8" y="27" width="348" height="56"/>
<path d="M34.86 78.52C29.74 78.52 25.48 77.68 22.08 76C18.68 74.28 16.14 71.88 14.46 68.8C12.82 65.72 12 62.12 12 58C12 53.44 12.94 49.46 14.82 46.06C16.7 42.62 19.4 39.96 22.92 38.08C26.48 36.2 30.76 35.26 35.76 35.26C40.44 35.26 44.02 36.2 46.5 38.08C49.02 39.92 50.28 42.46 50.28 45.7C50.28 48.06 49.62 49.94 48.3 51.34C47.02 52.7 45.14 53.38 42.66 53.38C41.3 53.38 40.12 53.2 39.12 52.84C38.12 52.48 37.12 52.14 36.12 51.82C35.12 51.46 33.96 51.28 32.64 51.28C31.52 51.28 30.46 51.46 29.46 51.82C28.5 52.14 27.72 52.72 27.12 53.56C26.56 54.36 26.28 55.48 26.28 56.92C26.28 58.8 26.84 60.14 27.96 60.94C29.12 61.74 30.64 62.14 32.52 62.14C33.48 62.14 34.56 62.08 35.76 61.96C36.96 61.8 38.14 61.66 39.3 61.54C40.5 61.42 41.52 61.36 42.36 61.36C44.48 61.36 46.16 61.96 47.4 63.16C48.68 64.32 49.32 66.08 49.32 68.44C49.32 71.52 48.14 73.98 45.78 75.82C43.46 77.62 39.82 78.52 34.86 78.52Z"/>
<path d="M78.6122 77.5C76.9722 77.5 75.7122 77.14 74.8322 76.42C73.9522 75.66 73.3522 74.7 73.0322 73.54C72.7522 72.34 72.6122 71.08 72.6122 69.76L72.9122 69.52C72.3122 71.24 71.3922 72.72 70.1522 73.96C68.9522 75.2 67.5722 76.16 66.0122 76.84C64.4922 77.48 62.9522 77.8 61.3922 77.8C59.0322 77.8 57.0522 77.3 55.4522 76.3C53.8522 75.26 52.5522 73.62 51.5522 71.38C50.7122 69.5 50.0322 66.98 49.5122 63.82C49.0322 60.66 48.7922 57.38 48.7922 53.98C48.7922 52.42 48.8522 51 48.9722 49.72C49.1322 48.4 49.3522 47.3 49.6322 46.42C50.1122 44.9 50.9122 43.78 52.0322 43.06C53.1922 42.34 54.5722 41.98 56.1722 41.98C58.0522 41.98 59.5322 42.6 60.6122 43.84C61.7322 45.04 62.3922 46.72 62.5922 48.88C62.7122 50.08 62.8122 51.46 62.8922 53.02C62.9722 54.54 63.0522 56.04 63.1322 57.52C63.2122 59 63.2922 60.28 63.3722 61.36C63.5322 62.84 63.8922 63.94 64.4522 64.66C65.0122 65.34 65.7922 65.68 66.7922 65.68C67.9522 65.68 68.8322 65.12 69.4322 64C70.0722 62.84 70.3922 61.26 70.3922 59.26C70.3922 58.18 70.3322 56.96 70.2122 55.6C70.1322 54.24 70.0522 52.92 69.9722 51.64C69.8922 50.32 69.8522 49.24 69.8522 48.4C69.8522 45.68 70.3722 43.74 71.4122 42.58C72.4922 41.42 73.9922 40.84 75.9122 40.84C77.4722 40.84 78.8122 41.18 79.9322 41.86C81.0522 42.5 81.8722 43.44 82.3922 44.68C82.9522 45.84 83.4322 47.42 83.8322 49.42C84.2322 51.42 84.5522 53.68 84.7922 56.2C85.0322 58.68 85.1522 61.32 85.1522 64.12C85.1522 68.6 84.6722 71.96 83.7122 74.2C82.7522 76.4 81.0522 77.5 78.6122 77.5Z"/>
<path d="M94.8412 41.74H94.2412C94.0412 39.98 94.1012 38.32 94.4212 36.76C94.7412 35.16 95.4212 33.88 96.4613 32.92C97.5013 31.92 99.0013 31.42 100.961 31.42C102.961 31.42 104.421 31.88 105.341 32.8C106.261 33.72 106.721 35 106.721 36.64C106.721 38.72 106.241 40.5 105.281 41.98L104.801 41.86C106.201 41.1 107.741 40.72 109.421 40.72C111.501 40.72 113.161 41.22 114.401 42.22C115.681 43.18 116.321 44.84 116.321 47.2C116.321 49.4 115.601 51.08 114.161 52.24C112.721 53.36 110.921 53.92 108.761 53.92C108.001 53.92 107.181 53.88 106.301 53.8C105.461 53.68 104.641 53.5 103.841 53.26L104.141 52.6C104.661 53.8 105.161 55.16 105.641 56.68C106.121 58.16 106.541 59.72 106.901 61.36C107.301 62.96 107.601 64.54 107.801 66.1C108.041 67.62 108.161 68.98 108.161 70.18C108.161 72.74 107.521 74.76 106.241 76.24C105.001 77.72 103.081 78.46 100.481 78.46C98.8813 78.46 97.5413 78.18 96.4613 77.62C95.3813 77.06 94.5212 76.28 93.8812 75.28C93.2412 74.28 92.7813 73.1 92.5013 71.74C92.2213 70.34 92.0813 68.84 92.0813 67.24C92.0813 65.88 92.1812 64.36 92.3812 62.68C92.6212 60.96 92.9613 59.18 93.4013 57.34C93.8413 55.5 94.3613 53.74 94.9613 52.06L95.5612 53.56C94.2812 54.6 92.6612 55.12 90.7012 55.12C88.5012 55.12 86.7813 54.58 85.5413 53.5C84.3013 52.38 83.6813 50.68 83.6813 48.4C83.6813 46.04 84.3412 44.22 85.6612 42.94C87.0212 41.66 88.8413 41.02 91.1213 41.02C91.8413 41.02 92.5212 41.1 93.1612 41.26C93.8012 41.38 94.3612 41.54 94.8412 41.74Z"/>
<path d="M122.604 31.84C125.084 31.84 126.844 32.42 127.884 33.58C128.964 34.74 129.504 36.08 129.504 37.6C129.504 39.44 128.844 40.88 127.524 41.92C126.204 42.92 124.364 43.42 122.004 43.42C119.684 43.42 117.944 42.86 116.784 41.74C115.664 40.62 115.104 39.3 115.104 37.78C115.104 35.82 115.784 34.34 117.144 33.34C118.544 32.34 120.364 31.84 122.604 31.84ZM123.264 45.22C125.224 45.22 126.744 46.42 127.824 48.82C128.944 51.22 129.504 55.04 129.504 60.28C129.504 66.72 128.804 71.36 127.404 74.2C126.044 77.04 123.964 78.46 121.164 78.46C118.964 78.46 117.344 77.42 116.304 75.34C115.304 73.22 114.804 69.54 114.804 64.3C114.804 57.86 115.584 53.08 117.144 49.96C118.704 46.8 120.744 45.22 123.264 45.22Z"/>
<path d="M148.653 78.34C143.733 78.34 139.813 77.68 136.893 76.36C133.973 75.04 131.853 73.14 130.533 70.66C129.253 68.18 128.613 65.22 128.613 61.78C128.613 57.42 129.513 53.72 131.313 50.68C133.153 47.6 135.653 45.24 138.813 43.6C142.013 41.96 145.633 41.14 149.673 41.14C154.473 41.14 157.993 42.1 160.233 44.02C162.473 45.9 163.593 48.38 163.593 51.46C163.593 53.9 162.913 56.02 161.553 57.82C160.233 59.62 158.373 61 155.973 61.96C153.613 62.92 150.873 63.4 147.753 63.4C146.313 63.4 144.913 63.3 143.553 63.1C142.193 62.9 140.973 62.64 139.893 62.32L141.333 58.96C141.213 59.92 141.153 60.88 141.153 61.84C141.153 63.56 141.773 64.78 143.013 65.5C144.293 66.22 146.053 66.58 148.293 66.58C150.453 66.58 152.293 66.36 153.813 65.92C155.333 65.44 156.673 64.98 157.833 64.54C158.993 64.06 160.093 63.82 161.133 63.82C161.853 63.82 162.593 64 163.353 64.36C164.113 64.72 164.753 65.28 165.273 66.04C165.793 66.8 166.053 67.82 166.053 69.1C166.053 70.86 165.393 72.44 164.073 73.84C162.753 75.24 160.793 76.34 158.193 77.14C155.633 77.94 152.453 78.34 148.653 78.34ZM145.173 57.4C147.093 57.4 148.753 56.94 150.153 56.02C151.553 55.06 152.253 53.9 152.253 52.54C152.253 51.66 151.933 50.94 151.293 50.38C150.653 49.82 149.773 49.54 148.653 49.54C147.413 49.54 146.233 49.78 145.113 50.26C144.033 50.74 143.153 51.36 142.473 52.12C141.793 52.88 141.453 53.72 141.453 54.64C141.453 55.52 141.773 56.2 142.413 56.68C143.093 57.16 144.013 57.4 145.173 57.4Z"/>
<path d="M178.387 78.16C175.187 78.16 172.607 77.7 170.647 76.78C168.727 75.86 167.327 74.36 166.447 72.28C165.887 70.92 165.467 69.3 165.187 67.42C164.947 65.5 164.827 63.28 164.827 60.76C164.827 57 164.987 53.76 165.307 51.04C165.627 48.32 166.087 46 166.687 44.08C167.287 42.16 168.027 40.54 168.907 39.22C170.067 37.46 171.927 36.08 174.487 35.08C177.047 34.04 180.667 33.52 185.347 33.52C188.987 33.52 191.907 33.94 194.107 34.78C196.347 35.58 197.967 36.68 198.967 38.08C199.967 39.48 200.467 41.08 200.467 42.88C200.467 45.52 199.627 47.68 197.947 49.36C196.267 51 194.067 52.3 191.347 53.26V53.5C194.307 53.78 196.607 54.72 198.247 56.32C199.927 57.88 200.767 60.16 200.767 63.16C200.767 65.36 200.127 67.38 198.847 69.22C197.567 71.02 195.847 72.6 193.687 73.96C191.567 75.28 189.167 76.32 186.487 77.08C183.847 77.8 181.147 78.16 178.387 78.16ZM182.407 67.48C183.607 67.48 184.667 67.3 185.587 66.94C186.507 66.58 187.227 66.08 187.747 65.44C188.307 64.8 188.587 64.06 188.587 63.22C188.587 62.18 188.127 61.32 187.207 60.64C186.327 59.92 184.947 59.56 183.067 59.56C181.587 59.56 180.327 59.94 179.287 60.7C178.287 61.42 177.787 62.48 177.787 63.88C177.787 65.12 178.167 66.04 178.927 66.64C179.687 67.2 180.847 67.48 182.407 67.48ZM182.407 50.38C184.167 50.38 185.607 50.02 186.727 49.3C187.847 48.58 188.407 47.6 188.407 46.36C188.407 45.44 187.947 44.7 187.027 44.14C186.147 43.54 184.887 43.24 183.247 43.24C181.767 43.24 180.547 43.56 179.587 44.2C178.667 44.84 178.207 45.78 178.207 47.02C178.207 48.14 178.587 48.98 179.347 49.54C180.107 50.1 181.127 50.38 182.407 50.38Z"/>
<path d="M229.901 77.5C228.261 77.5 227.001 77.14 226.121 76.42C225.241 75.66 224.641 74.7 224.321 73.54C224.041 72.34 223.901 71.08 223.901 69.76L224.201 69.52C223.601 71.24 222.681 72.72 221.441 73.96C220.241 75.2 218.861 76.16 217.301 76.84C215.781 77.48 214.241 77.8 212.681 77.8C210.321 77.8 208.341 77.3 206.741 76.3C205.141 75.26 203.841 73.62 202.841 71.38C202.001 69.5 201.321 66.98 200.801 63.82C200.321 60.66 200.081 57.38 200.081 53.98C200.081 52.42 200.141 51 200.261 49.72C200.421 48.4 200.641 47.3 200.921 46.42C201.401 44.9 202.201 43.78 203.321 43.06C204.481 42.34 205.861 41.98 207.461 41.98C209.341 41.98 210.821 42.6 211.901 43.84C213.021 45.04 213.681 46.72 213.881 48.88C214.001 50.08 214.101 51.46 214.181 53.02C214.261 54.54 214.341 56.04 214.421 57.52C214.501 59 214.581 60.28 214.661 61.36C214.821 62.84 215.181 63.94 215.741 64.66C216.301 65.34 217.081 65.68 218.081 65.68C219.241 65.68 220.121 65.12 220.721 64C221.361 62.84 221.681 61.26 221.681 59.26C221.681 58.18 221.621 56.96 221.501 55.6C221.421 54.24 221.341 52.92 221.261 51.64C221.181 50.32 221.141 49.24 221.141 48.4C221.141 45.68 221.661 43.74 222.701 42.58C223.781 41.42 225.281 40.84 227.201 40.84C228.761 40.84 230.101 41.18 231.221 41.86C232.341 42.5 233.161 43.44 233.681 44.68C234.241 45.84 234.721 47.42 235.121 49.42C235.521 51.42 235.841 53.68 236.081 56.2C236.321 58.68 236.441 61.32 236.441 64.12C236.441 68.6 235.961 71.96 235.001 74.2C234.041 76.4 232.341 77.5 229.901 77.5Z"/>
<path d="M242.41 78.46C241.05 78.46 239.89 78.1 238.93 77.38C238.01 76.66 237.37 75.56 237.01 74.08C236.69 72.52 236.41 70.5 236.17 68.02C235.97 65.5 235.87 62.82 235.87 59.98C235.87 58.42 235.89 56.64 235.93 54.64C236.01 52.64 236.11 50.62 236.23 48.58C236.39 46.54 236.55 44.64 236.71 42.88C236.87 41.08 237.03 39.62 237.19 38.5C237.59 36.18 238.33 34.36 239.41 33.04C240.53 31.68 242.13 31 244.21 31C246.45 31 248.09 31.72 249.13 33.16C250.17 34.56 250.69 36.28 250.69 38.32C250.69 40.08 250.55 42.16 250.27 44.56C250.03 46.96 249.65 49.4 249.13 51.88L248.41 51.52C248.85 49.8 249.53 48.26 250.45 46.9C251.37 45.5 252.55 44.4 253.99 43.6C255.43 42.76 257.15 42.34 259.15 42.34C262.95 42.34 265.95 43.74 268.15 46.54C270.39 49.3 271.51 53.62 271.51 59.5C271.51 63.62 270.89 67.06 269.65 69.82C268.41 72.58 266.71 74.66 264.55 76.06C262.39 77.42 259.93 78.1 257.17 78.1C254.61 78.1 252.47 77.36 250.75 75.88C249.03 74.4 247.91 72.26 247.39 69.46L248.65 70.12C248.17 73 247.41 75.12 246.37 76.48C245.37 77.8 244.05 78.46 242.41 78.46ZM253.69 68.02C254.97 68.02 256.07 67.38 256.99 66.1C257.95 64.82 258.43 62.82 258.43 60.1C258.43 57.94 258.05 56.18 257.29 54.82C256.57 53.46 255.33 52.78 253.57 52.78C252.13 52.78 250.97 53.38 250.09 54.58C249.21 55.78 248.77 57.6 248.77 60.04C248.77 62.36 249.21 64.28 250.09 65.8C251.01 67.28 252.21 68.02 253.69 68.02Z"/>
<path d="M288.485 40.3C292.805 40.3 295.905 41.06 297.785 42.58C299.705 44.06 300.665 45.98 300.665 48.34C300.665 49.82 300.165 51.04 299.165 52C298.205 52.96 296.845 53.44 295.085 53.44C293.805 53.44 292.425 53.24 290.945 52.84C289.505 52.4 287.845 52.18 285.965 52.18C285.085 52.18 284.405 52.34 283.925 52.66C283.485 52.98 283.265 53.4 283.265 53.92C283.265 54.44 283.505 54.88 283.985 55.24C284.505 55.56 285.625 55.82 287.345 56.02C290.385 56.26 292.945 56.74 295.025 57.46C297.145 58.18 298.745 59.3 299.825 60.82C300.905 62.3 301.445 64.36 301.445 67C301.445 70.88 299.985 73.7 297.065 75.46C294.185 77.22 290.165 78.1 285.005 78.1C281.445 78.1 278.585 77.76 276.425 77.08C274.265 76.36 272.705 75.38 271.745 74.14C270.785 72.86 270.305 71.4 270.305 69.76C270.305 68.16 270.825 66.92 271.865 66.04C272.945 65.12 274.205 64.66 275.645 64.66C276.565 64.66 277.545 64.8 278.585 65.08C279.625 65.32 280.725 65.58 281.885 65.86C283.045 66.14 284.225 66.28 285.425 66.28C287.025 66.28 287.825 65.82 287.825 64.9C287.825 64.58 287.725 64.3 287.525 64.06C287.365 63.78 286.985 63.54 286.385 63.34C285.825 63.1 284.945 62.92 283.745 62.8C281.065 62.48 278.745 62 276.785 61.36C274.825 60.72 273.305 59.74 272.225 58.42C271.145 57.06 270.605 55.22 270.605 52.9C270.605 49.14 272.165 46.1 275.285 43.78C278.405 41.46 282.805 40.3 288.485 40.3Z"/>
<path d="M308.334 31.84C310.814 31.84 312.574 32.42 313.614 33.58C314.694 34.74 315.234 36.08 315.234 37.6C315.234 39.44 314.574 40.88 313.254 41.92C311.934 42.92 310.094 43.42 307.734 43.42C305.414 43.42 303.674 42.86 302.514 41.74C301.394 40.62 300.834 39.3 300.834 37.78C300.834 35.82 301.514 34.34 302.874 33.34C304.274 32.34 306.094 31.84 308.334 31.84ZM308.994 45.22C310.954 45.22 312.474 46.42 313.554 48.82C314.674 51.22 315.234 55.04 315.234 60.28C315.234 66.72 314.534 71.36 313.134 74.2C311.774 77.04 309.694 78.46 306.894 78.46C304.694 78.46 303.074 77.42 302.034 75.34C301.034 73.22 300.534 69.54 300.534 64.3C300.534 57.86 301.314 53.08 302.874 49.96C304.434 46.8 306.474 45.22 308.994 45.22Z"/>
<path d="M334.384 78.34C329.464 78.34 325.544 77.68 322.624 76.36C319.704 75.04 317.584 73.14 316.264 70.66C314.984 68.18 314.344 65.22 314.344 61.78C314.344 57.42 315.244 53.72 317.044 50.68C318.884 47.6 321.384 45.24 324.544 43.6C327.744 41.96 331.364 41.14 335.404 41.14C340.204 41.14 343.724 42.1 345.964 44.02C348.204 45.9 349.324 48.38 349.324 51.46C349.324 53.9 348.644 56.02 347.284 57.82C345.964 59.62 344.104 61 341.704 61.96C339.344 62.92 336.604 63.4 333.484 63.4C332.044 63.4 330.644 63.3 329.284 63.1C327.924 62.9 326.704 62.64 325.624 62.32L327.064 58.96C326.944 59.92 326.884 60.88 326.884 61.84C326.884 63.56 327.504 64.78 328.744 65.5C330.024 66.22 331.784 66.58 334.024 66.58C336.184 66.58 338.024 66.36 339.544 65.92C341.064 65.44 342.404 64.98 343.564 64.54C344.724 64.06 345.824 63.82 346.864 63.82C347.584 63.82 348.324 64 349.084 64.36C349.844 64.72 350.484 65.28 351.004 66.04C351.524 66.8 351.784 67.82 351.784 69.1C351.784 70.86 351.124 72.44 349.804 73.84C348.484 75.24 346.524 76.34 343.924 77.14C341.364 77.94 338.184 78.34 334.384 78.34ZM330.904 57.4C332.824 57.4 334.484 56.94 335.884 56.02C337.284 55.06 337.984 53.9 337.984 52.54C337.984 51.66 337.664 50.94 337.024 50.38C336.384 49.82 335.504 49.54 334.384 49.54C333.144 49.54 331.964 49.78 330.844 50.26C329.764 50.74 328.884 51.36 328.204 52.12C327.524 52.88 327.184 53.72 327.184 54.64C327.184 55.52 327.504 56.2 328.144 56.68C328.824 57.16 329.744 57.4 330.904 57.4Z"/>
</mask>
<path d="M34.86 78.52C29.74 78.52 25.48 77.68 22.08 76C18.68 74.28 16.14 71.88 14.46 68.8C12.82 65.72 12 62.12 12 58C12 53.44 12.94 49.46 14.82 46.06C16.7 42.62 19.4 39.96 22.92 38.08C26.48 36.2 30.76 35.26 35.76 35.26C40.44 35.26 44.02 36.2 46.5 38.08C49.02 39.92 50.28 42.46 50.28 45.7C50.28 48.06 49.62 49.94 48.3 51.34C47.02 52.7 45.14 53.38 42.66 53.38C41.3 53.38 40.12 53.2 39.12 52.84C38.12 52.48 37.12 52.14 36.12 51.82C35.12 51.46 33.96 51.28 32.64 51.28C31.52 51.28 30.46 51.46 29.46 51.82C28.5 52.14 27.72 52.72 27.12 53.56C26.56 54.36 26.28 55.48 26.28 56.92C26.28 58.8 26.84 60.14 27.96 60.94C29.12 61.74 30.64 62.14 32.52 62.14C33.48 62.14 34.56 62.08 35.76 61.96C36.96 61.8 38.14 61.66 39.3 61.54C40.5 61.42 41.52 61.36 42.36 61.36C44.48 61.36 46.16 61.96 47.4 63.16C48.68 64.32 49.32 66.08 49.32 68.44C49.32 71.52 48.14 73.98 45.78 75.82C43.46 77.62 39.82 78.52 34.86 78.52Z" fill="#0042C2"/>
<path d="M78.6122 77.5C76.9722 77.5 75.7122 77.14 74.8322 76.42C73.9522 75.66 73.3522 74.7 73.0322 73.54C72.7522 72.34 72.6122 71.08 72.6122 69.76L72.9122 69.52C72.3122 71.24 71.3922 72.72 70.1522 73.96C68.9522 75.2 67.5722 76.16 66.0122 76.84C64.4922 77.48 62.9522 77.8 61.3922 77.8C59.0322 77.8 57.0522 77.3 55.4522 76.3C53.8522 75.26 52.5522 73.62 51.5522 71.38C50.7122 69.5 50.0322 66.98 49.5122 63.82C49.0322 60.66 48.7922 57.38 48.7922 53.98C48.7922 52.42 48.8522 51 48.9722 49.72C49.1322 48.4 49.3522 47.3 49.6322 46.42C50.1122 44.9 50.9122 43.78 52.0322 43.06C53.1922 42.34 54.5722 41.98 56.1722 41.98C58.0522 41.98 59.5322 42.6 60.6122 43.84C61.7322 45.04 62.3922 46.72 62.5922 48.88C62.7122 50.08 62.8122 51.46 62.8922 53.02C62.9722 54.54 63.0522 56.04 63.1322 57.52C63.2122 59 63.2922 60.28 63.3722 61.36C63.5322 62.84 63.8922 63.94 64.4522 64.66C65.0122 65.34 65.7922 65.68 66.7922 65.68C67.9522 65.68 68.8322 65.12 69.4322 64C70.0722 62.84 70.3922 61.26 70.3922 59.26C70.3922 58.18 70.3322 56.96 70.2122 55.6C70.1322 54.24 70.0522 52.92 69.9722 51.64C69.8922 50.32 69.8522 49.24 69.8522 48.4C69.8522 45.68 70.3722 43.74 71.4122 42.58C72.4922 41.42 73.9922 40.84 75.9122 40.84C77.4722 40.84 78.8122 41.18 79.9322 41.86C81.0522 42.5 81.8722 43.44 82.3922 44.68C82.9522 45.84 83.4322 47.42 83.8322 49.42C84.2322 51.42 84.5522 53.68 84.7922 56.2C85.0322 58.68 85.1522 61.32 85.1522 64.12C85.1522 68.6 84.6722 71.96 83.7122 74.2C82.7522 76.4 81.0522 77.5 78.6122 77.5Z" fill="#0042C2"/>
<path d="M94.8412 41.74H94.2412C94.0412 39.98 94.1012 38.32 94.4212 36.76C94.7412 35.16 95.4212 33.88 96.4613 32.92C97.5013 31.92 99.0013 31.42 100.961 31.42C102.961 31.42 104.421 31.88 105.341 32.8C106.261 33.72 106.721 35 106.721 36.64C106.721 38.72 106.241 40.5 105.281 41.98L104.801 41.86C106.201 41.1 107.741 40.72 109.421 40.72C111.501 40.72 113.161 41.22 114.401 42.22C115.681 43.18 116.321 44.84 116.321 47.2C116.321 49.4 115.601 51.08 114.161 52.24C112.721 53.36 110.921 53.92 108.761 53.92C108.001 53.92 107.181 53.88 106.301 53.8C105.461 53.68 104.641 53.5 103.841 53.26L104.141 52.6C104.661 53.8 105.161 55.16 105.641 56.68C106.121 58.16 106.541 59.72 106.901 61.36C107.301 62.96 107.601 64.54 107.801 66.1C108.041 67.62 108.161 68.98 108.161 70.18C108.161 72.74 107.521 74.76 106.241 76.24C105.001 77.72 103.081 78.46 100.481 78.46C98.8813 78.46 97.5413 78.18 96.4613 77.62C95.3813 77.06 94.5212 76.28 93.8812 75.28C93.2412 74.28 92.7813 73.1 92.5013 71.74C92.2213 70.34 92.0813 68.84 92.0813 67.24C92.0813 65.88 92.1812 64.36 92.3812 62.68C92.6212 60.96 92.9613 59.18 93.4013 57.34C93.8413 55.5 94.3613 53.74 94.9613 52.06L95.5612 53.56C94.2812 54.6 92.6612 55.12 90.7012 55.12C88.5012 55.12 86.7813 54.58 85.5413 53.5C84.3013 52.38 83.6813 50.68 83.6813 48.4C83.6813 46.04 84.3412 44.22 85.6612 42.94C87.0212 41.66 88.8413 41.02 91.1213 41.02C91.8413 41.02 92.5212 41.1 93.1612 41.26C93.8012 41.38 94.3612 41.54 94.8412 41.74Z" fill="#0042C2"/>
<path d="M122.604 31.84C125.084 31.84 126.844 32.42 127.884 33.58C128.964 34.74 129.504 36.08 129.504 37.6C129.504 39.44 128.844 40.88 127.524 41.92C126.204 42.92 124.364 43.42 122.004 43.42C119.684 43.42 117.944 42.86 116.784 41.74C115.664 40.62 115.104 39.3 115.104 37.78C115.104 35.82 115.784 34.34 117.144 33.34C118.544 32.34 120.364 31.84 122.604 31.84ZM123.264 45.22C125.224 45.22 126.744 46.42 127.824 48.82C128.944 51.22 129.504 55.04 129.504 60.28C129.504 66.72 128.804 71.36 127.404 74.2C126.044 77.04 123.964 78.46 121.164 78.46C118.964 78.46 117.344 77.42 116.304 75.34C115.304 73.22 114.804 69.54 114.804 64.3C114.804 57.86 115.584 53.08 117.144 49.96C118.704 46.8 120.744 45.22 123.264 45.22Z" fill="#0042C2"/>
<path d="M148.653 78.34C143.733 78.34 139.813 77.68 136.893 76.36C133.973 75.04 131.853 73.14 130.533 70.66C129.253 68.18 128.613 65.22 128.613 61.78C128.613 57.42 129.513 53.72 131.313 50.68C133.153 47.6 135.653 45.24 138.813 43.6C142.013 41.96 145.633 41.14 149.673 41.14C154.473 41.14 157.993 42.1 160.233 44.02C162.473 45.9 163.593 48.38 163.593 51.46C163.593 53.9 162.913 56.02 161.553 57.82C160.233 59.62 158.373 61 155.973 61.96C153.613 62.92 150.873 63.4 147.753 63.4C146.313 63.4 144.913 63.3 143.553 63.1C142.193 62.9 140.973 62.64 139.893 62.32L141.333 58.96C141.213 59.92 141.153 60.88 141.153 61.84C141.153 63.56 141.773 64.78 143.013 65.5C144.293 66.22 146.053 66.58 148.293 66.58C150.453 66.58 152.293 66.36 153.813 65.92C155.333 65.44 156.673 64.98 157.833 64.54C158.993 64.06 160.093 63.82 161.133 63.82C161.853 63.82 162.593 64 163.353 64.36C164.113 64.72 164.753 65.28 165.273 66.04C165.793 66.8 166.053 67.82 166.053 69.1C166.053 70.86 165.393 72.44 164.073 73.84C162.753 75.24 160.793 76.34 158.193 77.14C155.633 77.94 152.453 78.34 148.653 78.34ZM145.173 57.4C147.093 57.4 148.753 56.94 150.153 56.02C151.553 55.06 152.253 53.9 152.253 52.54C152.253 51.66 151.933 50.94 151.293 50.38C150.653 49.82 149.773 49.54 148.653 49.54C147.413 49.54 146.233 49.78 145.113 50.26C144.033 50.74 143.153 51.36 142.473 52.12C141.793 52.88 141.453 53.72 141.453 54.64C141.453 55.52 141.773 56.2 142.413 56.68C143.093 57.16 144.013 57.4 145.173 57.4Z" fill="#0042C2"/>
<path d="M178.387 78.16C175.187 78.16 172.607 77.7 170.647 76.78C168.727 75.86 167.327 74.36 166.447 72.28C165.887 70.92 165.467 69.3 165.187 67.42C164.947 65.5 164.827 63.28 164.827 60.76C164.827 57 164.987 53.76 165.307 51.04C165.627 48.32 166.087 46 166.687 44.08C167.287 42.16 168.027 40.54 168.907 39.22C170.067 37.46 171.927 36.08 174.487 35.08C177.047 34.04 180.667 33.52 185.347 33.52C188.987 33.52 191.907 33.94 194.107 34.78C196.347 35.58 197.967 36.68 198.967 38.08C199.967 39.48 200.467 41.08 200.467 42.88C200.467 45.52 199.627 47.68 197.947 49.36C196.267 51 194.067 52.3 191.347 53.26V53.5C194.307 53.78 196.607 54.72 198.247 56.32C199.927 57.88 200.767 60.16 200.767 63.16C200.767 65.36 200.127 67.38 198.847 69.22C197.567 71.02 195.847 72.6 193.687 73.96C191.567 75.28 189.167 76.32 186.487 77.08C183.847 77.8 181.147 78.16 178.387 78.16ZM182.407 67.48C183.607 67.48 184.667 67.3 185.587 66.94C186.507 66.58 187.227 66.08 187.747 65.44C188.307 64.8 188.587 64.06 188.587 63.22C188.587 62.18 188.127 61.32 187.207 60.64C186.327 59.92 184.947 59.56 183.067 59.56C181.587 59.56 180.327 59.94 179.287 60.7C178.287 61.42 177.787 62.48 177.787 63.88C177.787 65.12 178.167 66.04 178.927 66.64C179.687 67.2 180.847 67.48 182.407 67.48ZM182.407 50.38C184.167 50.38 185.607 50.02 186.727 49.3C187.847 48.58 188.407 47.6 188.407 46.36C188.407 45.44 187.947 44.7 187.027 44.14C186.147 43.54 184.887 43.24 183.247 43.24C181.767 43.24 180.547 43.56 179.587 44.2C178.667 44.84 178.207 45.78 178.207 47.02C178.207 48.14 178.587 48.98 179.347 49.54C180.107 50.1 181.127 50.38 182.407 50.38Z" fill="#0042C2"/>
<path d="M229.901 77.5C228.261 77.5 227.001 77.14 226.121 76.42C225.241 75.66 224.641 74.7 224.321 73.54C224.041 72.34 223.901 71.08 223.901 69.76L224.201 69.52C223.601 71.24 222.681 72.72 221.441 73.96C220.241 75.2 218.861 76.16 217.301 76.84C215.781 77.48 214.241 77.8 212.681 77.8C210.321 77.8 208.341 77.3 206.741 76.3C205.141 75.26 203.841 73.62 202.841 71.38C202.001 69.5 201.321 66.98 200.801 63.82C200.321 60.66 200.081 57.38 200.081 53.98C200.081 52.42 200.141 51 200.261 49.72C200.421 48.4 200.641 47.3 200.921 46.42C201.401 44.9 202.201 43.78 203.321 43.06C204.481 42.34 205.861 41.98 207.461 41.98C209.341 41.98 210.821 42.6 211.901 43.84C213.021 45.04 213.681 46.72 213.881 48.88C214.001 50.08 214.101 51.46 214.181 53.02C214.261 54.54 214.341 56.04 214.421 57.52C214.501 59 214.581 60.28 214.661 61.36C214.821 62.84 215.181 63.94 215.741 64.66C216.301 65.34 217.081 65.68 218.081 65.68C219.241 65.68 220.121 65.12 220.721 64C221.361 62.84 221.681 61.26 221.681 59.26C221.681 58.18 221.621 56.96 221.501 55.6C221.421 54.24 221.341 52.92 221.261 51.64C221.181 50.32 221.141 49.24 221.141 48.4C221.141 45.68 221.661 43.74 222.701 42.58C223.781 41.42 225.281 40.84 227.201 40.84C228.761 40.84 230.101 41.18 231.221 41.86C232.341 42.5 233.161 43.44 233.681 44.68C234.241 45.84 234.721 47.42 235.121 49.42C235.521 51.42 235.841 53.68 236.081 56.2C236.321 58.68 236.441 61.32 236.441 64.12C236.441 68.6 235.961 71.96 235.001 74.2C234.041 76.4 232.341 77.5 229.901 77.5Z" fill="#0042C2"/>
<path d="M242.41 78.46C241.05 78.46 239.89 78.1 238.93 77.38C238.01 76.66 237.37 75.56 237.01 74.08C236.69 72.52 236.41 70.5 236.17 68.02C235.97 65.5 235.87 62.82 235.87 59.98C235.87 58.42 235.89 56.64 235.93 54.64C236.01 52.64 236.11 50.62 236.23 48.58C236.39 46.54 236.55 44.64 236.71 42.88C236.87 41.08 237.03 39.62 237.19 38.5C237.59 36.18 238.33 34.36 239.41 33.04C240.53 31.68 242.13 31 244.21 31C246.45 31 248.09 31.72 249.13 33.16C250.17 34.56 250.69 36.28 250.69 38.32C250.69 40.08 250.55 42.16 250.27 44.56C250.03 46.96 249.65 49.4 249.13 51.88L248.41 51.52C248.85 49.8 249.53 48.26 250.45 46.9C251.37 45.5 252.55 44.4 253.99 43.6C255.43 42.76 257.15 42.34 259.15 42.34C262.95 42.34 265.95 43.74 268.15 46.54C270.39 49.3 271.51 53.62 271.51 59.5C271.51 63.62 270.89 67.06 269.65 69.82C268.41 72.58 266.71 74.66 264.55 76.06C262.39 77.42 259.93 78.1 257.17 78.1C254.61 78.1 252.47 77.36 250.75 75.88C249.03 74.4 247.91 72.26 247.39 69.46L248.65 70.12C248.17 73 247.41 75.12 246.37 76.48C245.37 77.8 244.05 78.46 242.41 78.46ZM253.69 68.02C254.97 68.02 256.07 67.38 256.99 66.1C257.95 64.82 258.43 62.82 258.43 60.1C258.43 57.94 258.05 56.18 257.29 54.82C256.57 53.46 255.33 52.78 253.57 52.78C252.13 52.78 250.97 53.38 250.09 54.58C249.21 55.78 248.77 57.6 248.77 60.04C248.77 62.36 249.21 64.28 250.09 65.8C251.01 67.28 252.21 68.02 253.69 68.02Z" fill="#0042C2"/>
<path d="M288.485 40.3C292.805 40.3 295.905 41.06 297.785 42.58C299.705 44.06 300.665 45.98 300.665 48.34C300.665 49.82 300.165 51.04 299.165 52C298.205 52.96 296.845 53.44 295.085 53.44C293.805 53.44 292.425 53.24 290.945 52.84C289.505 52.4 287.845 52.18 285.965 52.18C285.085 52.18 284.405 52.34 283.925 52.66C283.485 52.98 283.265 53.4 283.265 53.92C283.265 54.44 283.505 54.88 283.985 55.24C284.505 55.56 285.625 55.82 287.345 56.02C290.385 56.26 292.945 56.74 295.025 57.46C297.145 58.18 298.745 59.3 299.825 60.82C300.905 62.3 301.445 64.36 301.445 67C301.445 70.88 299.985 73.7 297.065 75.46C294.185 77.22 290.165 78.1 285.005 78.1C281.445 78.1 278.585 77.76 276.425 77.08C274.265 76.36 272.705 75.38 271.745 74.14C270.785 72.86 270.305 71.4 270.305 69.76C270.305 68.16 270.825 66.92 271.865 66.04C272.945 65.12 274.205 64.66 275.645 64.66C276.565 64.66 277.545 64.8 278.585 65.08C279.625 65.32 280.725 65.58 281.885 65.86C283.045 66.14 284.225 66.28 285.425 66.28C287.025 66.28 287.825 65.82 287.825 64.9C287.825 64.58 287.725 64.3 287.525 64.06C287.365 63.78 286.985 63.54 286.385 63.34C285.825 63.1 284.945 62.92 283.745 62.8C281.065 62.48 278.745 62 276.785 61.36C274.825 60.72 273.305 59.74 272.225 58.42C271.145 57.06 270.605 55.22 270.605 52.9C270.605 49.14 272.165 46.1 275.285 43.78C278.405 41.46 282.805 40.3 288.485 40.3Z" fill="#0042C2"/>
<path d="M308.334 31.84C310.814 31.84 312.574 32.42 313.614 33.58C314.694 34.74 315.234 36.08 315.234 37.6C315.234 39.44 314.574 40.88 313.254 41.92C311.934 42.92 310.094 43.42 307.734 43.42C305.414 43.42 303.674 42.86 302.514 41.74C301.394 40.62 300.834 39.3 300.834 37.78C300.834 35.82 301.514 34.34 302.874 33.34C304.274 32.34 306.094 31.84 308.334 31.84ZM308.994 45.22C310.954 45.22 312.474 46.42 313.554 48.82C314.674 51.22 315.234 55.04 315.234 60.28C315.234 66.72 314.534 71.36 313.134 74.2C311.774 77.04 309.694 78.46 306.894 78.46C304.694 78.46 303.074 77.42 302.034 75.34C301.034 73.22 300.534 69.54 300.534 64.3C300.534 57.86 301.314 53.08 302.874 49.96C304.434 46.8 306.474 45.22 308.994 45.22Z" fill="#0042C2"/>
<path d="M334.384 78.34C329.464 78.34 325.544 77.68 322.624 76.36C319.704 75.04 317.584 73.14 316.264 70.66C314.984 68.18 314.344 65.22 314.344 61.78C314.344 57.42 315.244 53.72 317.044 50.68C318.884 47.6 321.384 45.24 324.544 43.6C327.744 41.96 331.364 41.14 335.404 41.14C340.204 41.14 343.724 42.1 345.964 44.02C348.204 45.9 349.324 48.38 349.324 51.46C349.324 53.9 348.644 56.02 347.284 57.82C345.964 59.62 344.104 61 341.704 61.96C339.344 62.92 336.604 63.4 333.484 63.4C332.044 63.4 330.644 63.3 329.284 63.1C327.924 62.9 326.704 62.64 325.624 62.32L327.064 58.96C326.944 59.92 326.884 60.88 326.884 61.84C326.884 63.56 327.504 64.78 328.744 65.5C330.024 66.22 331.784 66.58 334.024 66.58C336.184 66.58 338.024 66.36 339.544 65.92C341.064 65.44 342.404 64.98 343.564 64.54C344.724 64.06 345.824 63.82 346.864 63.82C347.584 63.82 348.324 64 349.084 64.36C349.844 64.72 350.484 65.28 351.004 66.04C351.524 66.8 351.784 67.82 351.784 69.1C351.784 70.86 351.124 72.44 349.804 73.84C348.484 75.24 346.524 76.34 343.924 77.14C341.364 77.94 338.184 78.34 334.384 78.34ZM330.904 57.4C332.824 57.4 334.484 56.94 335.884 56.02C337.284 55.06 337.984 53.9 337.984 52.54C337.984 51.66 337.664 50.94 337.024 50.38C336.384 49.82 335.504 49.54 334.384 49.54C333.144 49.54 331.964 49.78 330.844 50.26C329.764 50.74 328.884 51.36 328.204 52.12C327.524 52.88 327.184 53.72 327.184 54.64C327.184 55.52 327.504 56.2 328.144 56.68C328.824 57.16 329.744 57.4 330.904 57.4Z" fill="#0042C2"/>
<path d="M34.86 78.52C29.74 78.52 25.48 77.68 22.08 76C18.68 74.28 16.14 71.88 14.46 68.8C12.82 65.72 12 62.12 12 58C12 53.44 12.94 49.46 14.82 46.06C16.7 42.62 19.4 39.96 22.92 38.08C26.48 36.2 30.76 35.26 35.76 35.26C40.44 35.26 44.02 36.2 46.5 38.08C49.02 39.92 50.28 42.46 50.28 45.7C50.28 48.06 49.62 49.94 48.3 51.34C47.02 52.7 45.14 53.38 42.66 53.38C41.3 53.38 40.12 53.2 39.12 52.84C38.12 52.48 37.12 52.14 36.12 51.82C35.12 51.46 33.96 51.28 32.64 51.28C31.52 51.28 30.46 51.46 29.46 51.82C28.5 52.14 27.72 52.72 27.12 53.56C26.56 54.36 26.28 55.48 26.28 56.92C26.28 58.8 26.84 60.14 27.96 60.94C29.12 61.74 30.64 62.14 32.52 62.14C33.48 62.14 34.56 62.08 35.76 61.96C36.96 61.8 38.14 61.66 39.3 61.54C40.5 61.42 41.52 61.36 42.36 61.36C44.48 61.36 46.16 61.96 47.4 63.16C48.68 64.32 49.32 66.08 49.32 68.44C49.32 71.52 48.14 73.98 45.78 75.82C43.46 77.62 39.82 78.52 34.86 78.52Z" stroke="#0042C2" stroke-width="8" mask="url(#path-1-outside-1_163_105)"/>
<path d="M78.6122 77.5C76.9722 77.5 75.7122 77.14 74.8322 76.42C73.9522 75.66 73.3522 74.7 73.0322 73.54C72.7522 72.34 72.6122 71.08 72.6122 69.76L72.9122 69.52C72.3122 71.24 71.3922 72.72 70.1522 73.96C68.9522 75.2 67.5722 76.16 66.0122 76.84C64.4922 77.48 62.9522 77.8 61.3922 77.8C59.0322 77.8 57.0522 77.3 55.4522 76.3C53.8522 75.26 52.5522 73.62 51.5522 71.38C50.7122 69.5 50.0322 66.98 49.5122 63.82C49.0322 60.66 48.7922 57.38 48.7922 53.98C48.7922 52.42 48.8522 51 48.9722 49.72C49.1322 48.4 49.3522 47.3 49.6322 46.42C50.1122 44.9 50.9122 43.78 52.0322 43.06C53.1922 42.34 54.5722 41.98 56.1722 41.98C58.0522 41.98 59.5322 42.6 60.6122 43.84C61.7322 45.04 62.3922 46.72 62.5922 48.88C62.7122 50.08 62.8122 51.46 62.8922 53.02C62.9722 54.54 63.0522 56.04 63.1322 57.52C63.2122 59 63.2922 60.28 63.3722 61.36C63.5322 62.84 63.8922 63.94 64.4522 64.66C65.0122 65.34 65.7922 65.68 66.7922 65.68C67.9522 65.68 68.8322 65.12 69.4322 64C70.0722 62.84 70.3922 61.26 70.3922 59.26C70.3922 58.18 70.3322 56.96 70.2122 55.6C70.1322 54.24 70.0522 52.92 69.9722 51.64C69.8922 50.32 69.8522 49.24 69.8522 48.4C69.8522 45.68 70.3722 43.74 71.4122 42.58C72.4922 41.42 73.9922 40.84 75.9122 40.84C77.4722 40.84 78.8122 41.18 79.9322 41.86C81.0522 42.5 81.8722 43.44 82.3922 44.68C82.9522 45.84 83.4322 47.42 83.8322 49.42C84.2322 51.42 84.5522 53.68 84.7922 56.2C85.0322 58.68 85.1522 61.32 85.1522 64.12C85.1522 68.6 84.6722 71.96 83.7122 74.2C82.7522 76.4 81.0522 77.5 78.6122 77.5Z" stroke="#0042C2" stroke-width="8" mask="url(#path-1-outside-1_163_105)"/>
<path d="M94.8412 41.74H94.2412C94.0412 39.98 94.1012 38.32 94.4212 36.76C94.7412 35.16 95.4212 33.88 96.4613 32.92C97.5013 31.92 99.0013 31.42 100.961 31.42C102.961 31.42 104.421 31.88 105.341 32.8C106.261 33.72 106.721 35 106.721 36.64C106.721 38.72 106.241 40.5 105.281 41.98L104.801 41.86C106.201 41.1 107.741 40.72 109.421 40.72C111.501 40.72 113.161 41.22 114.401 42.22C115.681 43.18 116.321 44.84 116.321 47.2C116.321 49.4 115.601 51.08 114.161 52.24C112.721 53.36 110.921 53.92 108.761 53.92C108.001 53.92 107.181 53.88 106.301 53.8C105.461 53.68 104.641 53.5 103.841 53.26L104.141 52.6C104.661 53.8 105.161 55.16 105.641 56.68C106.121 58.16 106.541 59.72 106.901 61.36C107.301 62.96 107.601 64.54 107.801 66.1C108.041 67.62 108.161 68.98 108.161 70.18C108.161 72.74 107.521 74.76 106.241 76.24C105.001 77.72 103.081 78.46 100.481 78.46C98.8813 78.46 97.5413 78.18 96.4613 77.62C95.3813 77.06 94.5212 76.28 93.8812 75.28C93.2412 74.28 92.7813 73.1 92.5013 71.74C92.2213 70.34 92.0813 68.84 92.0813 67.24C92.0813 65.88 92.1812 64.36 92.3812 62.68C92.6212 60.96 92.9613 59.18 93.4013 57.34C93.8413 55.5 94.3613 53.74 94.9613 52.06L95.5612 53.56C94.2812 54.6 92.6612 55.12 90.7012 55.12C88.5012 55.12 86.7813 54.58 85.5413 53.5C84.3013 52.38 83.6813 50.68 83.6813 48.4C83.6813 46.04 84.3412 44.22 85.6612 42.94C87.0212 41.66 88.8413 41.02 91.1213 41.02C91.8413 41.02 92.5212 41.1 93.1612 41.26C93.8012 41.38 94.3612 41.54 94.8412 41.74Z" stroke="#0042C2" stroke-width="8" mask="url(#path-1-outside-1_163_105)"/>
<path d="M122.604 31.84C125.084 31.84 126.844 32.42 127.884 33.58C128.964 34.74 129.504 36.08 129.504 37.6C129.504 39.44 128.844 40.88 127.524 41.92C126.204 42.92 124.364 43.42 122.004 43.42C119.684 43.42 117.944 42.86 116.784 41.74C115.664 40.62 115.104 39.3 115.104 37.78C115.104 35.82 115.784 34.34 117.144 33.34C118.544 32.34 120.364 31.84 122.604 31.84ZM123.264 45.22C125.224 45.22 126.744 46.42 127.824 48.82C128.944 51.22 129.504 55.04 129.504 60.28C129.504 66.72 128.804 71.36 127.404 74.2C126.044 77.04 123.964 78.46 121.164 78.46C118.964 78.46 117.344 77.42 116.304 75.34C115.304 73.22 114.804 69.54 114.804 64.3C114.804 57.86 115.584 53.08 117.144 49.96C118.704 46.8 120.744 45.22 123.264 45.22Z" stroke="#0042C2" stroke-width="8" mask="url(#path-1-outside-1_163_105)"/>
<path d="M148.653 78.34C143.733 78.34 139.813 77.68 136.893 76.36C133.973 75.04 131.853 73.14 130.533 70.66C129.253 68.18 128.613 65.22 128.613 61.78C128.613 57.42 129.513 53.72 131.313 50.68C133.153 47.6 135.653 45.24 138.813 43.6C142.013 41.96 145.633 41.14 149.673 41.14C154.473 41.14 157.993 42.1 160.233 44.02C162.473 45.9 163.593 48.38 163.593 51.46C163.593 53.9 162.913 56.02 161.553 57.82C160.233 59.62 158.373 61 155.973 61.96C153.613 62.92 150.873 63.4 147.753 63.4C146.313 63.4 144.913 63.3 143.553 63.1C142.193 62.9 140.973 62.64 139.893 62.32L141.333 58.96C141.213 59.92 141.153 60.88 141.153 61.84C141.153 63.56 141.773 64.78 143.013 65.5C144.293 66.22 146.053 66.58 148.293 66.58C150.453 66.58 152.293 66.36 153.813 65.92C155.333 65.44 156.673 64.98 157.833 64.54C158.993 64.06 160.093 63.82 161.133 63.82C161.853 63.82 162.593 64 163.353 64.36C164.113 64.72 164.753 65.28 165.273 66.04C165.793 66.8 166.053 67.82 166.053 69.1C166.053 70.86 165.393 72.44 164.073 73.84C162.753 75.24 160.793 76.34 158.193 77.14C155.633 77.94 152.453 78.34 148.653 78.34ZM145.173 57.4C147.093 57.4 148.753 56.94 150.153 56.02C151.553 55.06 152.253 53.9 152.253 52.54C152.253 51.66 151.933 50.94 151.293 50.38C150.653 49.82 149.773 49.54 148.653 49.54C147.413 49.54 146.233 49.78 145.113 50.26C144.033 50.74 143.153 51.36 142.473 52.12C141.793 52.88 141.453 53.72 141.453 54.64C141.453 55.52 141.773 56.2 142.413 56.68C143.093 57.16 144.013 57.4 145.173 57.4Z" stroke="#0042C2" stroke-width="8" mask="url(#path-1-outside-1_163_105)"/>
<path d="M178.387 78.16C175.187 78.16 172.607 77.7 170.647 76.78C168.727 75.86 167.327 74.36 166.447 72.28C165.887 70.92 165.467 69.3 165.187 67.42C164.947 65.5 164.827 63.28 164.827 60.76C164.827 57 164.987 53.76 165.307 51.04C165.627 48.32 166.087 46 166.687 44.08C167.287 42.16 168.027 40.54 168.907 39.22C170.067 37.46 171.927 36.08 174.487 35.08C177.047 34.04 180.667 33.52 185.347 33.52C188.987 33.52 191.907 33.94 194.107 34.78C196.347 35.58 197.967 36.68 198.967 38.08C199.967 39.48 200.467 41.08 200.467 42.88C200.467 45.52 199.627 47.68 197.947 49.36C196.267 51 194.067 52.3 191.347 53.26V53.5C194.307 53.78 196.607 54.72 198.247 56.32C199.927 57.88 200.767 60.16 200.767 63.16C200.767 65.36 200.127 67.38 198.847 69.22C197.567 71.02 195.847 72.6 193.687 73.96C191.567 75.28 189.167 76.32 186.487 77.08C183.847 77.8 181.147 78.16 178.387 78.16ZM182.407 67.48C183.607 67.48 184.667 67.3 185.587 66.94C186.507 66.58 187.227 66.08 187.747 65.44C188.307 64.8 188.587 64.06 188.587 63.22C188.587 62.18 188.127 61.32 187.207 60.64C186.327 59.92 184.947 59.56 183.067 59.56C181.587 59.56 180.327 59.94 179.287 60.7C178.287 61.42 177.787 62.48 177.787 63.88C177.787 65.12 178.167 66.04 178.927 66.64C179.687 67.2 180.847 67.48 182.407 67.48ZM182.407 50.38C184.167 50.38 185.607 50.02 186.727 49.3C187.847 48.58 188.407 47.6 188.407 46.36C188.407 45.44 187.947 44.7 187.027 44.14C186.147 43.54 184.887 43.24 183.247 43.24C181.767 43.24 180.547 43.56 179.587 44.2C178.667 44.84 178.207 45.78 178.207 47.02C178.207 48.14 178.587 48.98 179.347 49.54C180.107 50.1 181.127 50.38 182.407 50.38Z" stroke="#0042C2" stroke-width="8" mask="url(#path-1-outside-1_163_105)"/>
<path d="M229.901 77.5C228.261 77.5 227.001 77.14 226.121 76.42C225.241 75.66 224.641 74.7 224.321 73.54C224.041 72.34 223.901 71.08 223.901 69.76L224.201 69.52C223.601 71.24 222.681 72.72 221.441 73.96C220.241 75.2 218.861 76.16 217.301 76.84C215.781 77.48 214.241 77.8 212.681 77.8C210.321 77.8 208.341 77.3 206.741 76.3C205.141 75.26 203.841 73.62 202.841 71.38C202.001 69.5 201.321 66.98 200.801 63.82C200.321 60.66 200.081 57.38 200.081 53.98C200.081 52.42 200.141 51 200.261 49.72C200.421 48.4 200.641 47.3 200.921 46.42C201.401 44.9 202.201 43.78 203.321 43.06C204.481 42.34 205.861 41.98 207.461 41.98C209.341 41.98 210.821 42.6 211.901 43.84C213.021 45.04 213.681 46.72 213.881 48.88C214.001 50.08 214.101 51.46 214.181 53.02C214.261 54.54 214.341 56.04 214.421 57.52C214.501 59 214.581 60.28 214.661 61.36C214.821 62.84 215.181 63.94 215.741 64.66C216.301 65.34 217.081 65.68 218.081 65.68C219.241 65.68 220.121 65.12 220.721 64C221.361 62.84 221.681 61.26 221.681 59.26C221.681 58.18 221.621 56.96 221.501 55.6C221.421 54.24 221.341 52.92 221.261 51.64C221.181 50.32 221.141 49.24 221.141 48.4C221.141 45.68 221.661 43.74 222.701 42.58C223.781 41.42 225.281 40.84 227.201 40.84C228.761 40.84 230.101 41.18 231.221 41.86C232.341 42.5 233.161 43.44 233.681 44.68C234.241 45.84 234.721 47.42 235.121 49.42C235.521 51.42 235.841 53.68 236.081 56.2C236.321 58.68 236.441 61.32 236.441 64.12C236.441 68.6 235.961 71.96 235.001 74.2C234.041 76.4 232.341 77.5 229.901 77.5Z" stroke="#0042C2" stroke-width="8" mask="url(#path-1-outside-1_163_105)"/>
<path d="M242.41 78.46C241.05 78.46 239.89 78.1 238.93 77.38C238.01 76.66 237.37 75.56 237.01 74.08C236.69 72.52 236.41 70.5 236.17 68.02C235.97 65.5 235.87 62.82 235.87 59.98C235.87 58.42 235.89 56.64 235.93 54.64C236.01 52.64 236.11 50.62 236.23 48.58C236.39 46.54 236.55 44.64 236.71 42.88C236.87 41.08 237.03 39.62 237.19 38.5C237.59 36.18 238.33 34.36 239.41 33.04C240.53 31.68 242.13 31 244.21 31C246.45 31 248.09 31.72 249.13 33.16C250.17 34.56 250.69 36.28 250.69 38.32C250.69 40.08 250.55 42.16 250.27 44.56C250.03 46.96 249.65 49.4 249.13 51.88L248.41 51.52C248.85 49.8 249.53 48.26 250.45 46.9C251.37 45.5 252.55 44.4 253.99 43.6C255.43 42.76 257.15 42.34 259.15 42.34C262.95 42.34 265.95 43.74 268.15 46.54C270.39 49.3 271.51 53.62 271.51 59.5C271.51 63.62 270.89 67.06 269.65 69.82C268.41 72.58 266.71 74.66 264.55 76.06C262.39 77.42 259.93 78.1 257.17 78.1C254.61 78.1 252.47 77.36 250.75 75.88C249.03 74.4 247.91 72.26 247.39 69.46L248.65 70.12C248.17 73 247.41 75.12 246.37 76.48C245.37 77.8 244.05 78.46 242.41 78.46ZM253.69 68.02C254.97 68.02 256.07 67.38 256.99 66.1C257.95 64.82 258.43 62.82 258.43 60.1C258.43 57.94 258.05 56.18 257.29 54.82C256.57 53.46 255.33 52.78 253.57 52.78C252.13 52.78 250.97 53.38 250.09 54.58C249.21 55.78 248.77 57.6 248.77 60.04C248.77 62.36 249.21 64.28 250.09 65.8C251.01 67.28 252.21 68.02 253.69 68.02Z" stroke="#0042C2" stroke-width="8" mask="url(#path-1-outside-1_163_105)"/>
<path d="M288.485 40.3C292.805 40.3 295.905 41.06 297.785 42.58C299.705 44.06 300.665 45.98 300.665 48.34C300.665 49.82 300.165 51.04 299.165 52C298.205 52.96 296.845 53.44 295.085 53.44C293.805 53.44 292.425 53.24 290.945 52.84C289.505 52.4 287.845 52.18 285.965 52.18C285.085 52.18 284.405 52.34 283.925 52.66C283.485 52.98 283.265 53.4 283.265 53.92C283.265 54.44 283.505 54.88 283.985 55.24C284.505 55.56 285.625 55.82 287.345 56.02C290.385 56.26 292.945 56.74 295.025 57.46C297.145 58.18 298.745 59.3 299.825 60.82C300.905 62.3 301.445 64.36 301.445 67C301.445 70.88 299.985 73.7 297.065 75.46C294.185 77.22 290.165 78.1 285.005 78.1C281.445 78.1 278.585 77.76 276.425 77.08C274.265 76.36 272.705 75.38 271.745 74.14C270.785 72.86 270.305 71.4 270.305 69.76C270.305 68.16 270.825 66.92 271.865 66.04C272.945 65.12 274.205 64.66 275.645 64.66C276.565 64.66 277.545 64.8 278.585 65.08C279.625 65.32 280.725 65.58 281.885 65.86C283.045 66.14 284.225 66.28 285.425 66.28C287.025 66.28 287.825 65.82 287.825 64.9C287.825 64.58 287.725 64.3 287.525 64.06C287.365 63.78 286.985 63.54 286.385 63.34C285.825 63.1 284.945 62.92 283.745 62.8C281.065 62.48 278.745 62 276.785 61.36C274.825 60.72 273.305 59.74 272.225 58.42C271.145 57.06 270.605 55.22 270.605 52.9C270.605 49.14 272.165 46.1 275.285 43.78C278.405 41.46 282.805 40.3 288.485 40.3Z" stroke="#0042C2" stroke-width="8" mask="url(#path-1-outside-1_163_105)"/>
<path d="M308.334 31.84C310.814 31.84 312.574 32.42 313.614 33.58C314.694 34.74 315.234 36.08 315.234 37.6C315.234 39.44 314.574 40.88 313.254 41.92C311.934 42.92 310.094 43.42 307.734 43.42C305.414 43.42 303.674 42.86 302.514 41.74C301.394 40.62 300.834 39.3 300.834 37.78C300.834 35.82 301.514 34.34 302.874 33.34C304.274 32.34 306.094 31.84 308.334 31.84ZM308.994 45.22C310.954 45.22 312.474 46.42 313.554 48.82C314.674 51.22 315.234 55.04 315.234 60.28C315.234 66.72 314.534 71.36 313.134 74.2C311.774 77.04 309.694 78.46 306.894 78.46C304.694 78.46 303.074 77.42 302.034 75.34C301.034 73.22 300.534 69.54 300.534 64.3C300.534 57.86 301.314 53.08 302.874 49.96C304.434 46.8 306.474 45.22 308.994 45.22Z" stroke="#0042C2" stroke-width="8" mask="url(#path-1-outside-1_163_105)"/>
<path d="M334.384 78.34C329.464 78.34 325.544 77.68 322.624 76.36C319.704 75.04 317.584 73.14 316.264 70.66C314.984 68.18 314.344 65.22 314.344 61.78C314.344 57.42 315.244 53.72 317.044 50.68C318.884 47.6 321.384 45.24 324.544 43.6C327.744 41.96 331.364 41.14 335.404 41.14C340.204 41.14 343.724 42.1 345.964 44.02C348.204 45.9 349.324 48.38 349.324 51.46C349.324 53.9 348.644 56.02 347.284 57.82C345.964 59.62 344.104 61 341.704 61.96C339.344 62.92 336.604 63.4 333.484 63.4C332.044 63.4 330.644 63.3 329.284 63.1C327.924 62.9 326.704 62.64 325.624 62.32L327.064 58.96C326.944 59.92 326.884 60.88 326.884 61.84C326.884 63.56 327.504 64.78 328.744 65.5C330.024 66.22 331.784 66.58 334.024 66.58C336.184 66.58 338.024 66.36 339.544 65.92C341.064 65.44 342.404 64.98 343.564 64.54C344.724 64.06 345.824 63.82 346.864 63.82C347.584 63.82 348.324 64 349.084 64.36C349.844 64.72 350.484 65.28 351.004 66.04C351.524 66.8 351.784 67.82 351.784 69.1C351.784 70.86 351.124 72.44 349.804 73.84C348.484 75.24 346.524 76.34 343.924 77.14C341.364 77.94 338.184 78.34 334.384 78.34ZM330.904 57.4C332.824 57.4 334.484 56.94 335.884 56.02C337.284 55.06 337.984 53.9 337.984 52.54C337.984 51.66 337.664 50.94 337.024 50.38C336.384 49.82 335.504 49.54 334.384 49.54C333.144 49.54 331.964 49.78 330.844 50.26C329.764 50.74 328.884 51.36 328.204 52.12C327.524 52.88 327.184 53.72 327.184 54.64C327.184 55.52 327.504 56.2 328.144 56.68C328.824 57.16 329.744 57.4 330.904 57.4Z" stroke="#0042C2" stroke-width="8" mask="url(#path-1-outside-1_163_105)"/>
<path d="M334.384 78.34C329.464 78.34 325.544 77.68 322.624 76.36C319.704 75.04 317.584 73.14 316.264 70.66C314.984 68.18 314.344 65.22 314.344 61.78C314.344 57.42 315.244 53.72 317.044 50.68C318.884 47.6 321.384 45.24 324.544 43.6C327.744 41.96 331.364 41.14 335.404 41.14C340.204 41.14 343.724 42.1 345.964 44.02C348.204 45.9 349.324 48.38 349.324 51.46C349.324 53.9 348.644 56.02 347.284 57.82C345.964 59.62 344.104 61 341.704 61.96C339.344 62.92 336.604 63.4 333.484 63.4C332.044 63.4 330.644 63.3 329.284 63.1C327.924 62.9 326.704 62.64 325.624 62.32L327.064 58.96C326.944 59.92 326.884 60.88 326.884 61.84C326.884 63.56 327.504 64.78 328.744 65.5C330.024 66.22 331.784 66.58 334.024 66.58C336.184 66.58 338.024 66.36 339.544 65.92C341.064 65.44 342.404 64.98 343.564 64.54C344.724 64.06 345.824 63.82 346.864 63.82C347.584 63.82 348.324 64 349.084 64.36C349.844 64.72 350.484 65.28 351.004 66.04C351.524 66.8 351.784 67.82 351.784 69.1C351.784 70.86 351.124 72.44 349.804 73.84C348.484 75.24 346.524 76.34 343.924 77.14C341.364 77.94 338.184 78.34 334.384 78.34ZM330.904 57.4C332.824 57.4 334.484 56.94 335.884 56.02C337.284 55.06 337.984 53.9 337.984 52.54C337.984 51.66 337.664 50.94 337.024 50.38C336.384 49.82 335.504 49.54 334.384 49.54C333.144 49.54 331.964 49.78 330.844 50.26C329.764 50.74 328.884 51.36 328.204 52.12C327.524 52.88 327.184 53.72 327.184 54.64C327.184 55.52 327.504 56.2 328.144 56.68C328.824 57.16 329.744 57.4 330.904 57.4Z" fill="#5AA6FF"/>
<path d="M308.335 31.84C310.815 31.84 312.575 32.42 313.615 33.58C314.695 34.74 315.235 36.08 315.235 37.6C315.235 39.44 314.575 40.88 313.255 41.92C311.935 42.92 310.095 43.42 307.735 43.42C305.415 43.42 303.675 42.86 302.515 41.74C301.395 40.62 300.835 39.3 300.835 37.78C300.835 35.82 301.515 34.34 302.875 33.34C304.275 32.34 306.095 31.84 308.335 31.84ZM308.995 45.22C310.955 45.22 312.475 46.42 313.555 48.82C314.675 51.22 315.235 55.04 315.235 60.28C315.235 66.72 314.535 71.36 313.135 74.2C311.775 77.04 309.695 78.46 306.895 78.46C304.695 78.46 303.075 77.42 302.035 75.34C301.035 73.22 300.535 69.54 300.535 64.3C300.535 57.86 301.315 53.08 302.875 49.96C304.435 46.8 306.475 45.22 308.995 45.22Z" fill="#FF66AB"/>
<path d="M288.485 40.3C292.805 40.3 295.905 41.06 297.785 42.58C299.705 44.06 300.665 45.98 300.665 48.34C300.665 49.82 300.165 51.04 299.165 52C298.205 52.96 296.845 53.44 295.085 53.44C293.805 53.44 292.425 53.24 290.945 52.84C289.505 52.4 287.845 52.18 285.965 52.18C285.085 52.18 284.405 52.34 283.925 52.66C283.485 52.98 283.265 53.4 283.265 53.92C283.265 54.44 283.505 54.88 283.985 55.24C284.505 55.56 285.625 55.82 287.345 56.02C290.385 56.26 292.945 56.74 295.025 57.46C297.145 58.18 298.745 59.3 299.825 60.82C300.905 62.3 301.445 64.36 301.445 67C301.445 70.88 299.985 73.7 297.065 75.46C294.185 77.22 290.165 78.1 285.005 78.1C281.445 78.1 278.585 77.76 276.425 77.08C274.265 76.36 272.705 75.38 271.745 74.14C270.785 72.86 270.305 71.4 270.305 69.76C270.305 68.16 270.825 66.92 271.865 66.04C272.945 65.12 274.205 64.66 275.645 64.66C276.565 64.66 277.545 64.8 278.585 65.08C279.625 65.32 280.725 65.58 281.885 65.86C283.045 66.14 284.225 66.28 285.425 66.28C287.025 66.28 287.825 65.82 287.825 64.9C287.825 64.58 287.725 64.3 287.525 64.06C287.365 63.78 286.985 63.54 286.385 63.34C285.825 63.1 284.945 62.92 283.745 62.8C281.065 62.48 278.745 62 276.785 61.36C274.825 60.72 273.305 59.74 272.225 58.42C271.145 57.06 270.605 55.22 270.605 52.9C270.605 49.14 272.165 46.1 275.285 43.78C278.405 41.46 282.805 40.3 288.485 40.3Z" fill="#FFE065"/>
<path d="M242.41 78.46C241.05 78.46 239.89 78.1 238.93 77.38C238.01 76.66 237.37 75.56 237.01 74.08C236.69 72.52 236.41 70.5 236.17 68.02C235.97 65.5 235.87 62.82 235.87 59.98C235.87 58.42 235.89 56.64 235.93 54.64C236.01 52.64 236.11 50.62 236.23 48.58C236.39 46.54 236.55 44.64 236.71 42.88C236.87 41.08 237.03 39.62 237.19 38.5C237.59 36.18 238.33 34.36 239.41 33.04C240.53 31.68 242.13 31 244.21 31C246.45 31 248.09 31.72 249.13 33.16C250.17 34.56 250.69 36.28 250.69 38.32C250.69 40.08 250.55 42.16 250.27 44.56C250.03 46.96 249.65 49.4 249.13 51.88L248.41 51.52C248.85 49.8 249.53 48.26 250.45 46.9C251.37 45.5 252.55 44.4 253.99 43.6C255.43 42.76 257.15 42.34 259.15 42.34C262.95 42.34 265.95 43.74 268.15 46.54C270.39 49.3 271.51 53.62 271.51 59.5C271.51 63.62 270.89 67.06 269.65 69.82C268.41 72.58 266.71 74.66 264.55 76.06C262.39 77.42 259.93 78.1 257.17 78.1C254.61 78.1 252.47 77.36 250.75 75.88C249.03 74.4 247.91 72.26 247.39 69.46L248.65 70.12C248.17 73 247.41 75.12 246.37 76.48C245.37 77.8 244.05 78.46 242.41 78.46ZM253.69 68.02C254.97 68.02 256.07 67.38 256.99 66.1C257.95 64.82 258.43 62.82 258.43 60.1C258.43 57.94 258.05 56.18 257.29 54.82C256.57 53.46 255.33 52.78 253.57 52.78C252.13 52.78 250.97 53.38 250.09 54.58C249.21 55.78 248.77 57.6 248.77 60.04C248.77 62.36 249.21 64.28 250.09 65.8C251.01 67.28 252.21 68.02 253.69 68.02Z" fill="#5AA6FF"/>
<path d="M229.901 77.5C228.261 77.5 227.001 77.14 226.121 76.42C225.241 75.66 224.641 74.7 224.321 73.54C224.041 72.34 223.901 71.08 223.901 69.76L224.201 69.52C223.601 71.24 222.681 72.72 221.441 73.96C220.241 75.2 218.861 76.16 217.301 76.84C215.781 77.48 214.241 77.8 212.681 77.8C210.321 77.8 208.341 77.3 206.741 76.3C205.141 75.26 203.841 73.62 202.841 71.38C202.001 69.5 201.321 66.98 200.801 63.82C200.321 60.66 200.081 57.38 200.081 53.98C200.081 52.42 200.141 51 200.261 49.72C200.421 48.4 200.641 47.3 200.921 46.42C201.401 44.9 202.201 43.78 203.321 43.06C204.481 42.34 205.861 41.98 207.461 41.98C209.341 41.98 210.821 42.6 211.901 43.84C213.021 45.04 213.681 46.72 213.881 48.88C214.001 50.08 214.101 51.46 214.181 53.02C214.261 54.54 214.341 56.04 214.421 57.52C214.501 59 214.581 60.28 214.661 61.36C214.821 62.84 215.181 63.94 215.741 64.66C216.301 65.34 217.081 65.68 218.081 65.68C219.241 65.68 220.121 65.12 220.721 64C221.361 62.84 221.681 61.26 221.681 59.26C221.681 58.18 221.621 56.96 221.501 55.6C221.421 54.24 221.341 52.92 221.261 51.64C221.181 50.32 221.141 49.24 221.141 48.4C221.141 45.68 221.661 43.74 222.701 42.58C223.781 41.42 225.281 40.84 227.201 40.84C228.761 40.84 230.101 41.18 231.221 41.86C232.341 42.5 233.161 43.44 233.681 44.68C234.241 45.84 234.721 47.42 235.121 49.42C235.521 51.42 235.841 53.68 236.081 56.2C236.321 58.68 236.441 61.32 236.441 64.12C236.441 68.6 235.961 71.96 235.001 74.2C234.041 76.4 232.341 77.5 229.901 77.5Z" fill="#FF66AB"/>
<path d="M178.387 78.16C175.187 78.16 172.607 77.7 170.647 76.78C168.727 75.86 167.327 74.36 166.447 72.28C165.887 70.92 165.467 69.3 165.187 67.42C164.947 65.5 164.827 63.28 164.827 60.76C164.827 57 164.987 53.76 165.307 51.04C165.627 48.32 166.087 46 166.687 44.08C167.287 42.16 168.027 40.54 168.907 39.22C170.067 37.46 171.927 36.08 174.487 35.08C177.047 34.04 180.667 33.52 185.347 33.52C188.987 33.52 191.907 33.94 194.107 34.78C196.347 35.58 197.967 36.68 198.967 38.08C199.967 39.48 200.467 41.08 200.467 42.88C200.467 45.52 199.627 47.68 197.947 49.36C196.267 51 194.067 52.3 191.347 53.26V53.5C194.307 53.78 196.607 54.72 198.247 56.32C199.927 57.88 200.767 60.16 200.767 63.16C200.767 65.36 200.127 67.38 198.847 69.22C197.567 71.02 195.847 72.6 193.687 73.96C191.567 75.28 189.167 76.32 186.487 77.08C183.847 77.8 181.147 78.16 178.387 78.16ZM182.407 67.48C183.607 67.48 184.667 67.3 185.587 66.94C186.507 66.58 187.227 66.08 187.747 65.44C188.307 64.8 188.587 64.06 188.587 63.22C188.587 62.18 188.127 61.32 187.207 60.64C186.327 59.92 184.947 59.56 183.067 59.56C181.587 59.56 180.327 59.94 179.287 60.7C178.287 61.42 177.787 62.48 177.787 63.88C177.787 65.12 178.167 66.04 178.927 66.64C179.687 67.2 180.847 67.48 182.407 67.48ZM182.407 50.38C184.167 50.38 185.607 50.02 186.727 49.3C187.847 48.58 188.407 47.6 188.407 46.36C188.407 45.44 187.947 44.7 187.027 44.14C186.147 43.54 184.887 43.24 183.247 43.24C181.767 43.24 180.547 43.56 179.587 44.2C178.667 44.84 178.207 45.78 178.207 47.02C178.207 48.14 178.587 48.98 179.347 49.54C180.107 50.1 181.127 50.38 182.407 50.38Z" fill="#FFE065"/>
<path d="M148.653 78.34C143.733 78.34 139.813 77.68 136.893 76.36C133.973 75.04 131.853 73.14 130.533 70.66C129.253 68.18 128.613 65.22 128.613 61.78C128.613 57.42 129.513 53.72 131.313 50.68C133.153 47.6 135.653 45.24 138.813 43.6C142.013 41.96 145.633 41.14 149.673 41.14C154.473 41.14 157.993 42.1 160.233 44.02C162.473 45.9 163.593 48.38 163.593 51.46C163.593 53.9 162.913 56.02 161.553 57.82C160.233 59.62 158.373 61 155.973 61.96C153.613 62.92 150.873 63.4 147.753 63.4C146.313 63.4 144.913 63.3 143.553 63.1C142.193 62.9 140.973 62.64 139.893 62.32L141.333 58.96C141.213 59.92 141.153 60.88 141.153 61.84C141.153 63.56 141.773 64.78 143.013 65.5C144.293 66.22 146.053 66.58 148.293 66.58C150.453 66.58 152.293 66.36 153.813 65.92C155.333 65.44 156.673 64.98 157.833 64.54C158.993 64.06 160.093 63.82 161.133 63.82C161.853 63.82 162.593 64 163.353 64.36C164.113 64.72 164.753 65.28 165.273 66.04C165.793 66.8 166.053 67.82 166.053 69.1C166.053 70.86 165.393 72.44 164.073 73.84C162.753 75.24 160.793 76.34 158.193 77.14C155.633 77.94 152.453 78.34 148.653 78.34ZM145.173 57.4C147.093 57.4 148.753 56.94 150.153 56.02C151.553 55.06 152.253 53.9 152.253 52.54C152.253 51.66 151.933 50.94 151.293 50.38C150.653 49.82 149.773 49.54 148.653 49.54C147.413 49.54 146.233 49.78 145.113 50.26C144.033 50.74 143.153 51.36 142.473 52.12C141.793 52.88 141.453 53.72 141.453 54.64C141.453 55.52 141.773 56.2 142.413 56.68C143.093 57.16 144.013 57.4 145.173 57.4Z" fill="#5AA6FF"/>
<path d="M122.604 31.84C125.084 31.84 126.844 32.42 127.884 33.58C128.964 34.74 129.504 36.08 129.504 37.6C129.504 39.44 128.844 40.88 127.524 41.92C126.204 42.92 124.364 43.42 122.004 43.42C119.684 43.42 117.944 42.86 116.784 41.74C115.664 40.62 115.104 39.3 115.104 37.78C115.104 35.82 115.784 34.34 117.144 33.34C118.544 32.34 120.364 31.84 122.604 31.84ZM123.264 45.22C125.224 45.22 126.744 46.42 127.824 48.82C128.944 51.22 129.504 55.04 129.504 60.28C129.504 66.72 128.804 71.36 127.404 74.2C126.044 77.04 123.964 78.46 121.164 78.46C118.964 78.46 117.344 77.42 116.304 75.34C115.304 73.22 114.804 69.54 114.804 64.3C114.804 57.86 115.584 53.08 117.144 49.96C118.704 46.8 120.744 45.22 123.264 45.22Z" fill="#FF66AB"/>
<path d="M94.8414 41.74H94.2414C94.0414 39.98 94.1014 38.32 94.4214 36.76C94.7414 35.16 95.4214 33.88 96.4614 32.92C97.5014 31.92 99.0014 31.42 100.961 31.42C102.961 31.42 104.421 31.88 105.341 32.8C106.261 33.72 106.721 35 106.721 36.64C106.721 38.72 106.241 40.5 105.281 41.98L104.801 41.86C106.201 41.1 107.741 40.72 109.421 40.72C111.501 40.72 113.161 41.22 114.401 42.22C115.681 43.18 116.321 44.84 116.321 47.2C116.321 49.4 115.601 51.08 114.161 52.24C112.721 53.36 110.921 53.92 108.761 53.92C108.001 53.92 107.181 53.88 106.301 53.8C105.461 53.68 104.641 53.5 103.841 53.26L104.141 52.6C104.661 53.8 105.161 55.16 105.641 56.68C106.121 58.16 106.541 59.72 106.901 61.36C107.301 62.96 107.601 64.54 107.801 66.1C108.041 67.62 108.161 68.98 108.161 70.18C108.161 72.74 107.521 74.76 106.241 76.24C105.001 77.72 103.081 78.46 100.481 78.46C98.8814 78.46 97.5414 78.18 96.4614 77.62C95.3814 77.06 94.5214 76.28 93.8814 75.28C93.2414 74.28 92.7814 73.1 92.5014 71.74C92.2214 70.34 92.0814 68.84 92.0814 67.24C92.0814 65.88 92.1814 64.36 92.3814 62.68C92.6214 60.96 92.9614 59.18 93.4014 57.34C93.8414 55.5 94.3614 53.74 94.9614 52.06L95.5614 53.56C94.2814 54.6 92.6614 55.12 90.7014 55.12C88.5014 55.12 86.7814 54.58 85.5414 53.5C84.3014 52.38 83.6814 50.68 83.6814 48.4C83.6814 46.04 84.3414 44.22 85.6614 42.94C87.0214 41.66 88.8414 41.02 91.1214 41.02C91.8414 41.02 92.5214 41.1 93.1614 41.26C93.8014 41.38 94.3614 41.54 94.8414 41.74Z" fill="#FFE065"/>
<path d="M78.6122 77.5C76.9722 77.5 75.7122 77.14 74.8322 76.42C73.9522 75.66 73.3522 74.7 73.0322 73.54C72.7522 72.34 72.6122 71.08 72.6122 69.76L72.9122 69.52C72.3122 71.24 71.3922 72.72 70.1522 73.96C68.9522 75.2 67.5722 76.16 66.0122 76.84C64.4922 77.48 62.9522 77.8 61.3922 77.8C59.0322 77.8 57.0522 77.3 55.4522 76.3C53.8522 75.26 52.5522 73.62 51.5522 71.38C50.7122 69.5 50.0322 66.98 49.5122 63.82C49.0322 60.66 48.7922 57.38 48.7922 53.98C48.7922 52.42 48.8522 51 48.9722 49.72C49.1322 48.4 49.3522 47.3 49.6322 46.42C50.1122 44.9 50.9122 43.78 52.0322 43.06C53.1922 42.34 54.5722 41.98 56.1722 41.98C58.0522 41.98 59.5322 42.6 60.6122 43.84C61.7322 45.04 62.3922 46.72 62.5922 48.88C62.7122 50.08 62.8122 51.46 62.8922 53.02C62.9722 54.54 63.0522 56.04 63.1322 57.52C63.2122 59 63.2922 60.28 63.3722 61.36C63.5322 62.84 63.8922 63.94 64.4522 64.66C65.0122 65.34 65.7922 65.68 66.7922 65.68C67.9522 65.68 68.8322 65.12 69.4322 64C70.0722 62.84 70.3922 61.26 70.3922 59.26C70.3922 58.18 70.3322 56.96 70.2122 55.6C70.1322 54.24 70.0522 52.92 69.9722 51.64C69.8922 50.32 69.8522 49.24 69.8522 48.4C69.8522 45.68 70.3722 43.74 71.4122 42.58C72.4922 41.42 73.9922 40.84 75.9122 40.84C77.4722 40.84 78.8122 41.18 79.9322 41.86C81.0522 42.5 81.8722 43.44 82.3922 44.68C82.9522 45.84 83.4322 47.42 83.8322 49.42C84.2322 51.42 84.5522 53.68 84.7922 56.2C85.0322 58.68 85.1522 61.32 85.1522 64.12C85.1522 68.6 84.6722 71.96 83.7122 74.2C82.7522 76.4 81.0522 77.5 78.6122 77.5Z" fill="#5AA6FF"/>
<path d="M34.86 78.52C29.74 78.52 25.48 77.68 22.08 76C18.68 74.28 16.14 71.88 14.46 68.8C12.82 65.72 12 62.12 12 58C12 53.44 12.94 49.46 14.82 46.06C16.7 42.62 19.4 39.96 22.92 38.08C26.48 36.2 30.76 35.26 35.76 35.26C40.44 35.26 44.02 36.2 46.5 38.08C49.02 39.92 50.28 42.46 50.28 45.7C50.28 48.06 49.62 49.94 48.3 51.34C47.02 52.7 45.14 53.38 42.66 53.38C41.3 53.38 40.12 53.2 39.12 52.84C38.12 52.48 37.12 52.14 36.12 51.82C35.12 51.46 33.96 51.28 32.64 51.28C31.52 51.28 30.46 51.46 29.46 51.82C28.5 52.14 27.72 52.72 27.12 53.56C26.56 54.36 26.28 55.48 26.28 56.92C26.28 58.8 26.84 60.14 27.96 60.94C29.12 61.74 30.64 62.14 32.52 62.14C33.48 62.14 34.56 62.08 35.76 61.96C36.96 61.8 38.14 61.66 39.3 61.54C40.5 61.42 41.52 61.36 42.36 61.36C44.48 61.36 46.16 61.96 47.4 63.16C48.68 64.32 49.32 66.08 49.32 68.44C49.32 71.52 48.14 73.98 45.78 75.82C43.46 77.62 39.82 78.52 34.86 78.52Z" fill="#FF66AB"/>
</svg>
